AtkinsonHyperlegibleMono-LightItalic.sfdir
StartChar: exclam
Encoding: 33 33 254
Width: 632
GlyphClass: 1
Flags: W
LayerCount: 2
Fore
SplineSet
333 497 m 1,0,-1
 370 668 l 1,1,-1
 440 668 l 1,2,-1
 404 497 l 1,3,-1
 322 181 l 1,4,-1
 281 181 l 1,5,-1
 333 497 l 1,0,-1
234 4 m 128,-1,7
 218 20 218 20 218 43 c 256,8,9
 218 66 218 66 234 82 c 128,-1,10
 250 98 250 98 273 98 c 0,11,12
 295 98 295 98 311 82 c 128,-1,13
 327 66 327 66 327 43 c 256,14,15
 327 20 327 20 311 4 c 128,-1,16
 295 -12 295 -12 273 -12 c 0,17,6
 250 -12 250 -12 234 4 c 128,-1,7
EndSplineSet
EndChar
StartChar: dollar
Encoding: 36 36 304
Width: 632
GlyphClass: 1
Flags: W
LayerCount: 2
Fore
SplineSet
118 44 m 128,-1,1
 68 83 68 83 54 146 c 1,2,-1
 122 169 l 1,3,4
 131 121 131 121 164 91.5 c 128,-1,5
 197 62 197 62 246 52 c 1,6,-1
 304 326 l 1,7,-1
 273 338 l 2,8,9
 137 390 137 390 137 491 c 0,10,11
 137 540 137 540 165.5 583.5 c 128,-1,12
 194 627 194 627 249 653.5 c 128,-1,13
 304 680 304 680 379 680 c 1,14,-1
 396 758 l 1,15,-1
 439 758 l 1,16,-1
 421 677 l 1,17,18
 481 668 481 668 527 637.5 c 128,-1,19
 573 607 573 607 594 557 c 1,20,-1
 528 534 l 1,21,22
 514 568 514 568 481.5 590 c 128,-1,23
 449 612 449 612 409 618 c 1,24,-1
 357 375 l 1,25,-1
 389 363 l 2,26,27
 471 333 471 333 511 295.5 c 128,-1,28
 551 258 551 258 551 198 c 0,29,30
 551 142 551 142 519.5 93.5 c 128,-1,31
 488 45 488 45 426 16.5 c 128,-1,32
 364 -12 364 -12 276 -11 c 1,33,-1
 259 -90 l 1,34,-1
 216 -90 l 1,35,-1
 234 -7 l 1,36,0
 168 5 168 5 118 44 c 128,-1,1
391.5 64.5 m 128,-1,38
 435 84 435 84 458 118 c 128,-1,39
 481 152 481 152 481 191 c 0,40,41
 481 231 481 231 451 256 c 128,-1,42
 421 281 421 281 363 304 c 2,43,-1
 344 312 l 1,44,-1
 287 46 l 1,45,37
 348 45 348 45 391.5 64.5 c 128,-1,38
252.5 586 m 128,-1,47
 207 552 207 552 207 496 c 0,48,49
 207 461 207 461 231 438 c 128,-1,50
 255 415 255 415 300 397 c 2,51,-1
 318 389 l 1,52,-1
 367 622 l 1,53,46
 298 620 298 620 252.5 586 c 128,-1,47
EndSplineSet
EndChar
StartChar: percent
Encoding: 37 37 332
Width: 632
GlyphClass: 1
Flags: W
LayerCount: 2
Fore
SplineSet
139.5 406.5 m 128,-1,1
 106 426 106 426 86.5 460 c 128,-1,2
 67 494 67 494 67 534 c 256,3,4
 67 574 67 574 86.5 608 c 128,-1,5
 106 642 106 642 139.5 661.5 c 128,-1,6
 173 681 173 681 214 681 c 0,7,8
 254 681 254 681 287.5 661.5 c 128,-1,9
 321 642 321 642 340.5 608 c 128,-1,10
 360 574 360 574 360 534 c 256,11,12
 360 494 360 494 340.5 460 c 128,-1,13
 321 426 321 426 287.5 406.5 c 128,-1,14
 254 387 254 387 214 387 c 0,15,0
 173 387 173 387 139.5 406.5 c 128,-1,1
279 467 m 128,-1,17
 306 495 306 495 306 534 c 256,18,19
 306 573 306 573 279 600.5 c 128,-1,20
 252 628 252 628 214 628 c 0,21,22
 175 628 175 628 148 600.5 c 128,-1,23
 121 573 121 573 121 534 c 256,24,25
 121 495 121 495 148 467 c 128,-1,26
 175 439 175 439 214 439 c 0,27,16
 252 439 252 439 279 467 c 128,-1,17
551 668 m 1,28,-1
 619 668 l 1,29,-1
 117 0 l 1,30,-1
 49 0 l 1,31,-1
 551 668 l 1,28,-1
381.5 6.5 m 128,-1,33
 348 26 348 26 328.5 60 c 128,-1,34
 309 94 309 94 309 134 c 256,35,36
 309 174 309 174 328.5 208 c 128,-1,37
 348 242 348 242 381.5 261.5 c 128,-1,38
 415 281 415 281 456 281 c 0,39,40
 496 281 496 281 529.5 261.5 c 128,-1,41
 563 242 563 242 582.5 208 c 128,-1,42
 602 174 602 174 602 134 c 256,43,44
 602 94 602 94 582.5 60 c 128,-1,45
 563 26 563 26 529.5 6.5 c 128,-1,46
 496 -13 496 -13 456 -13 c 0,47,32
 415 -13 415 -13 381.5 6.5 c 128,-1,33
521 67 m 128,-1,49
 548 95 548 95 548 134 c 256,50,51
 548 173 548 173 521 200.5 c 128,-1,52
 494 228 494 228 456 228 c 0,53,54
 417 228 417 228 390 200.5 c 128,-1,55
 363 173 363 173 363 134 c 256,56,57
 363 95 363 95 390 67 c 128,-1,58
 417 39 417 39 456 39 c 0,59,48
 494 39 494 39 521 67 c 128,-1,49
EndSplineSet
EndChar
StartChar: ampersand
Encoding: 38 38 289
Width: 632
GlyphClass: 1
Flags: W
LayerCount: 2
Fore
SplineSet
67 33.5 m 128,-1,1
 10 78 10 78 10 154 c 0,2,3
 10 242 10 242 71.5 302.5 c 128,-1,4
 133 363 133 363 233 394 c 1,5,6
 185 465 185 465 185 524 c 0,7,8
 185 565 185 565 206.5 602.5 c 128,-1,9
 228 640 228 640 267 663 c 128,-1,10
 306 686 306 686 355 686 c 0,11,12
 397 686 397 686 430 668.5 c 128,-1,13
 463 651 463 651 481 621.5 c 128,-1,14
 499 592 499 592 499 556 c 0,15,16
 499 489 499 489 449 440.5 c 128,-1,17
 399 392 399 392 323 368 c 1,18,-1
 442 189 l 1,19,20
 461 219 461 219 472.5 254.5 c 128,-1,21
 484 290 484 290 494 343 c 1,22,-1
 560 343 l 1,23,24
 536 219 536 219 475 138 c 1,25,-1
 566 0 l 1,26,-1
 490 0 l 1,27,-1
 434 86 l 1,28,29
 383 34 383 34 328.5 11.5 c 128,-1,30
 274 -11 274 -11 213 -11 c 0,31,0
 124 -11 124 -11 67 33.5 c 128,-1,1
402 137 m 1,33,-1
 262 348 l 1,34,35
 180 322 180 322 129 277 c 128,-1,36
 78 232 78 232 78 164 c 0,37,38
 78 111 78 111 118.5 79.5 c 128,-1,39
 159 48 159 48 223 48 c 0,40,32
 326 48 326 48 402 137 c 1,33,-1
397 464 m 128,-1,42
 437 500 437 500 437 550 c 0,43,44
 437 584 437 584 413 606.5 c 128,-1,45
 389 629 389 629 352 629 c 0,46,47
 305 629 305 629 276 598 c 128,-1,48
 247 567 247 567 247 527 c 0,49,50
 247 500 247 500 260.5 471 c 128,-1,51
 274 442 274 442 296 410 c 1,52,41
 357 428 357 428 397 464 c 128,-1,42
EndSplineSet
EndChar
StartChar: parenleft
Encoding: 40 40 268
Width: 632
GlyphClass: 1
Flags: W
LayerCount: 2
Fore
SplineSet
218 8 m 128,-1,1
 185 99 185 99 185 193 c 0,2,3
 185 344 185 344 270.5 478.5 c 128,-1,4
 356 613 356 613 499 708 c 1,5,-1
 594 708 l 1,6,7
 445 613 445 613 350 480.5 c 128,-1,8
 255 348 255 348 255 197 c 0,9,10
 255 105 255 105 291 13.5 c 128,-1,11
 327 -78 327 -78 396 -162 c 1,12,-1
 315 -162 l 1,13,0
 251 -83 251 -83 218 8 c 128,-1,1
EndSplineSet
EndChar
StartChar: asterisk
Encoding: 42 42 260
Width: 632
GlyphClass: 1
Flags: W
LayerCount: 2
Fore
SplineSet
209 364 m 1,0,-1
 326 482 l 1,1,-1
 199 537 l 1,2,-1
 225 583 l 1,3,-1
 351 525 l 1,4,-1
 380 667 l 1,5,-1
 430 667 l 1,6,-1
 399 521 l 1,7,-1
 543 550 l 1,8,-1
 547 500 l 1,9,-1
 405 472 l 1,10,-1
 460 357 l 1,11,-1
 417 332 l 1,12,-1
 361 445 l 1,13,-1
 246 332 l 1,14,-1
 209 364 l 1,0,-1
EndSplineSet
EndChar
StartChar: plus
Encoding: 43 43 311
Width: 632
GlyphClass: 1
Flags: W
LayerCount: 2
Fore
SplineSet
279 217 m 1,0,-1
 60 217 l 1,1,-1
 73 279 l 1,2,-1
 291 279 l 1,3,-1
 338 496 l 1,4,-1
 400 496 l 1,5,-1
 353 279 l 1,6,-1
 572 279 l 1,7,-1
 559 217 l 1,8,-1
 341 217 l 1,9,-1
 294 0 l 1,10,-1
 232 0 l 1,11,-1
 279 217 l 1,0,-1
EndSplineSet
EndChar
StartChar: comma
Encoding: 44 44 250
Width: 632
GlyphClass: 1
Flags: W
LayerCount: 2
Fore
SplineSet
227 13.5 m 128,-1,1
 216 29 216 29 216 49 c 0,2,3
 216 74 216 74 234 91.5 c 128,-1,4
 252 109 252 109 277 109 c 0,5,6
 303 109 303 109 319.5 91.5 c 128,-1,7
 336 74 336 74 336 52 c 0,8,9
 336 40 336 40 332.5 31 c 128,-1,10
 329 22 329 22 321 10 c 2,11,-1
 228 -141 l 1,12,-1
 175 -141 l 1,13,-1
 257 -10 l 1,14,0
 238 -2 238 -2 227 13.5 c 128,-1,1
EndSplineSet
EndChar
StartChar: one
Encoding: 49 49 230
Width: 632
GlyphClass: 5
Flags: W
LayerCount: 2
Fore
SplineSet
78 60 m 1,0,-1
 254 60 l 1,1,-1
 353 521 l 1,2,-1
 175 521 l 1,3,-1
 186 572 l 1,4,-1
 219 572 l 2,5,6
 279 572 279 572 310.5 579.5 c 128,-1,7
 342 587 342 587 362.5 606.5 c 128,-1,8
 383 626 383 626 405 668 c 1,9,-1
 452 668 l 1,10,-1
 323 60 l 1,11,-1
 483 60 l 1,12,-1
 470 0 l 1,13,-1
 66 0 l 1,14,-1
 78 60 l 1,0,-1
EndSplineSet
Substitution2: "'sups' Superscript in Latin lookup 6 subtable" uni00B9
AlternateSubs2: "'aalt' Access All Alternates in Latin lookup 0 subtable" uni00B9
EndChar
StartChar: four
Encoding: 52 52 233
Width: 632
GlyphClass: 5
Flags: W
LayerCount: 2
Fore
SplineSet
376 172 m 1,0,-1
 42 172 l 1,1,-1
 57 242 l 1,2,-1
 472 668 l 1,3,-1
 550 668 l 1,4,-1
 458 235 l 1,5,-1
 571 235 l 1,6,-1
 558 172 l 1,7,-1
 445 172 l 1,8,-1
 408 0 l 1,9,-1
 339 0 l 1,10,-1
 376 172 l 1,0,-1
389 235 m 1,11,-1
 461 572 l 1,12,-1
 457 572 l 1,13,-1
 130 234 l 1,14,-1
 389 235 l 1,11,-1
EndSplineSet
EndChar
StartChar: eight
Encoding: 56 56 237
Width: 632
GlyphClass: 1
Flags: W
LayerCount: 2
Fore
SplineSet
178 11.5 m 128,-1,1
 125 34 125 34 93.5 75.5 c 128,-1,2
 62 117 62 117 62 172 c 0,3,4
 62 247 62 247 110 301.5 c 128,-1,5
 158 356 158 356 235 376 c 1,6,7
 213 396 213 396 201.5 424.5 c 128,-1,8
 190 453 190 453 190 485 c 0,9,10
 190 537 190 537 217 582.5 c 128,-1,11
 244 628 244 628 289.5 655.5 c 128,-1,12
 335 683 335 683 388 683 c 0,13,14
 436 683 436 683 472.5 661.5 c 128,-1,15
 509 640 509 640 529 604 c 128,-1,16
 549 568 549 568 549 525 c 0,17,18
 549 471 549 471 520 425.5 c 128,-1,19
 491 380 491 380 444 355 c 1,20,21
 490 332 490 332 516.5 293 c 128,-1,22
 543 254 543 254 543 204 c 0,23,24
 543 140 543 140 509 91.5 c 128,-1,25
 475 43 475 43 418 16 c 128,-1,26
 361 -11 361 -11 294 -11 c 0,27,0
 231 -11 231 -11 178 11.5 c 128,-1,1
383.5 67.5 m 128,-1,29
 424 86 424 86 448 120 c 128,-1,30
 472 154 472 154 472 199 c 0,31,32
 472 256 472 256 425.5 291.5 c 128,-1,33
 379 327 379 327 310 327 c 0,34,35
 263 327 263 327 222 308.5 c 128,-1,36
 181 290 181 290 157 256 c 128,-1,37
 133 222 133 222 133 177 c 0,38,39
 133 118 133 118 180.5 83.5 c 128,-1,40
 228 49 228 49 296 49 c 0,41,28
 343 49 343 49 383.5 67.5 c 128,-1,29
419.5 404 m 128,-1,43
 450 422 450 422 468.5 452 c 128,-1,44
 487 482 487 482 487 517 c 0,45,46
 487 561 487 561 458 591 c 128,-1,47
 429 621 429 621 383 621 c 0,48,49
 349 621 349 621 318.5 603.5 c 128,-1,50
 288 586 288 586 269.5 556 c 128,-1,51
 251 526 251 526 251 491 c 0,52,53
 251 447 251 447 279.5 416.5 c 128,-1,54
 308 386 308 386 355 386 c 0,55,42
 389 386 389 386 419.5 404 c 128,-1,43
EndSplineSet
EndChar
StartChar: nine
Encoding: 57 57 238
Width: 632
GlyphClass: 1
Flags: W
LayerCount: 2
Fore
SplineSet
321 208 m 0,1,2
 267 208 267 208 218.5 234.5 c 128,-1,3
 170 261 170 261 140.5 308.5 c 128,-1,4
 111 356 111 356 111 416 c 0,5,6
 111 486 111 486 146 547 c 128,-1,7
 181 608 181 608 241.5 645 c 128,-1,8
 302 682 302 682 374 682 c 0,9,10
 437 682 437 682 486 653.5 c 128,-1,11
 535 625 535 625 562.5 576.5 c 128,-1,12
 590 528 590 528 590 470 c 0,13,14
 590 413 590 413 565.5 363 c 128,-1,15
 541 313 541 313 489 252 c 2,16,-1
 272 0 l 1,17,-1
 187 0 l 1,18,-1
 379 216 l 1,19,0
 354 208 354 208 321 208 c 0,1,2
426 298 m 128,-1,21
 470 324 470 324 496.5 367.5 c 128,-1,22
 523 411 523 411 523 462 c 0,23,24
 523 504 523 504 504 539.5 c 128,-1,25
 485 575 485 575 450 596 c 128,-1,26
 415 617 415 617 370 617 c 0,27,28
 320 617 320 617 275.5 591 c 128,-1,29
 231 565 231 565 204 520.5 c 128,-1,30
 177 476 177 476 177 424 c 0,31,32
 177 380 177 380 197.5 345.5 c 128,-1,33
 218 311 218 311 253 291.5 c 128,-1,34
 288 272 288 272 332 272 c 0,35,20
 382 272 382 272 426 298 c 128,-1,21
EndSplineSet
EndChar
StartChar: less
Encoding: 60 60 318
Width: 632
GlyphClass: 1
Flags: W
LayerCount: 2
Fore
SplineSet
77 220 m 1,0,-1
 88 276 l 1,1,-1
 601 490 l 1,2,-1
 584 413 l 1,3,-1
 167 243 l 1,4,-1
 512 74 l 1,5,-1
 498 6 l 1,6,-1
 77 220 l 1,0,-1
EndSplineSet
EndChar
StartChar: equal
Encoding: 61 61 315
Width: 632
GlyphClass: 1
Flags: W
LayerCount: 2
Fore
SplineSet
92 372 m 1,0,-1
 591 372 l 1,1,-1
 578 310 l 1,2,-1
 80 310 l 1,3,-1
 92 372 l 1,0,-1
54 191 m 1,4,-1
 553 191 l 1,5,-1
 540 129 l 1,6,-1
 42 129 l 1,7,-1
 54 191 l 1,4,-1
EndSplineSet
EndChar
StartChar: greater
Encoding: 62 62 317
Width: 632
GlyphClass: 1
Flags: W
LayerCount: 2
Fore
SplineSet
48 82 m 1,0,-1
 465 251 l 1,1,-1
 120 421 l 1,2,-1
 134 490 l 1,3,-1
 555 276 l 1,4,-1
 544 220 l 1,5,-1
 31 6 l 1,6,-1
 48 82 l 1,0,-1
EndSplineSet
EndChar
StartChar: A
Encoding: 65 65 2
Width: 632
GlyphClass: 2
Flags: W
AnchorPoint: "Anchor-2" 547 10 basechar 0
AnchorPoint: "Anchor-1" 405 668 basechar 0
AnchorPoint: "Anchor-0" 263 0 basechar 0
LayerCount: 2
Fore
SplineSet
368 668 m 1,0,-1
 443 668 l 1,1,-1
 545 0 l 1,2,-1
 477 0 l 1,3,-1
 454 161 l 1,4,-1
 145 161 l 1,5,-1
 54 0 l 1,6,-1
 -19 0 l 1,7,-1
 368 668 l 1,0,-1
447 221 m 1,8,-1
 394 593 l 1,9,-1
 390 593 l 1,10,-1
 178 221 l 1,11,-1
 447 221 l 1,8,-1
EndSplineSet
Substitution2: "Single Substitution lookup 14 subtable" ordfeminine
AlternateSubs2: "'aalt' Access All Alternates in Latin lookup 0 subtable" ordfeminine
EndChar
StartChar: H
Encoding: 72 72 37
Width: 632
GlyphClass: 2
Flags: W
AnchorPoint: "Anchor-1" 404 668 basechar 0
AnchorPoint: "Anchor-0" 262 0 basechar 0
LayerCount: 2
Fore
SplineSet
152 668 m 1,0,-1
 224 668 l 1,1,-1
 161 376 l 1,2,-1
 524 376 l 1,3,-1
 586 668 l 1,4,-1
 658 668 l 1,5,-1
 516 0 l 1,6,-1
 444 0 l 1,7,-1
 511 314 l 1,8,-1
 148 314 l 1,9,-1
 82 0 l 1,10,-1
 10 0 l 1,11,-1
 152 668 l 1,0,-1
EndSplineSet
EndChar
StartChar: I
Encoding: 73 73 39
Width: 632
GlyphClass: 2
Flags: W
AnchorPoint: "Anchor-2" 443 10 basechar 0
AnchorPoint: "Anchor-1" 405 668 basechar 0
AnchorPoint: "Anchor-0" 263 0 basechar 0
LayerCount: 2
Fore
SplineSet
97 53 m 1,0,-1
 239 53 l 1,1,-1
 358 615 l 1,2,-1
 216 615 l 1,3,-1
 227 668 l 1,4,-1
 583 668 l 1,5,-1
 571 615 l 1,6,-1
 429 615 l 1,7,-1
 310 53 l 1,8,-1
 452 53 l 1,9,-1
 441 0 l 1,10,-1
 85 0 l 1,11,-1
 97 53 l 1,0,-1
EndSplineSet
EndChar
StartChar: L
Encoding: 76 76 52
Width: 632
GlyphClass: 2
Flags: W
AnchorPoint: "Anchor-3" 330 459 basechar 0
AnchorPoint: "Anchor-1" 411 668 basechar 0
AnchorPoint: "Anchor-0" 290 0 basechar 0
LayerCount: 2
Fore
SplineSet
230 668 m 1,0,-1
 301 668 l 1,1,-1
 172 62 l 1,2,-1
 542 62 l 1,3,-1
 529 0 l 1,4,-1
 88 0 l 1,5,-1
 230 668 l 1,0,-1
EndSplineSet
EndChar
StartChar: N
Encoding: 78 78 57
Width: 632
GlyphClass: 2
Flags: W
AnchorPoint: "Anchor-1" 405 668 basechar 0
AnchorPoint: "Anchor-0" 251 0 basechar 0
LayerCount: 2
Fore
SplineSet
169 668 m 1,0,-1
 266 668 l 1,1,-1
 444 82 l 1,2,-1
 448 82 l 1,3,-1
 573 668 l 1,4,-1
 641 668 l 1,5,-1
 499 0 l 1,6,-1
 402 0 l 1,7,-1
 224 586 l 1,8,-1
 220 586 l 1,9,-1
 95 0 l 1,10,-1
 27 0 l 1,11,-1
 169 668 l 1,0,-1
EndSplineSet
EndChar
StartChar: P
Encoding: 80 80 71
Width: 632
GlyphClass: 2
Flags: W
AnchorPoint: "Anchor-1" 408 668 basechar 0
AnchorPoint: "Anchor-0" 266 0 basechar 0
LayerCount: 2
Fore
SplineSet
201 668 m 1,0,-1
 392 668 l 2,1,2
 498 668 498 668 558 622.5 c 128,-1,3
 618 577 618 577 618 496 c 0,4,5
 618 396 618 396 553.5 336.5 c 128,-1,6
 489 277 489 277 379 277 c 2,7,-1
 187 277 l 1,8,-1
 128 0 l 1,9,-1
 59 0 l 1,10,-1
 201 668 l 1,0,-1
503.5 376 m 128,-1,12
 547 416 547 416 547 491 c 0,13,14
 547 549 547 549 505 578.5 c 128,-1,15
 463 608 463 608 386 608 c 2,16,-1
 258 608 l 1,17,-1
 200 336 l 1,18,-1
 383 336 l 2,19,11
 460 336 460 336 503.5 376 c 128,-1,12
EndSplineSet
EndChar
StartChar: Q
Encoding: 81 81 73
Width: 632
GlyphClass: 1
Flags: W
LayerCount: 2
Fore
SplineSet
111.5 61.5 m 128,-1,1
 52 135 52 135 52 255 c 0,2,3
 52 353 52 353 89.5 451.5 c 128,-1,4
 127 550 127 550 201 615 c 128,-1,5
 275 680 275 680 380 680 c 0,6,7
 497 680 497 680 556.5 606.5 c 128,-1,8
 616 533 616 533 616 413 c 0,9,10
 616 333 616 333 591 251 c 128,-1,11
 566 169 566 169 518 107 c 1,12,-1
 583 30 l 1,13,-1
 536 -9 l 1,14,-1
 476 61 l 1,15,16
 395 -12 395 -12 288 -12 c 0,17,0
 171 -12 171 -12 111.5 61.5 c 128,-1,1
435 110 m 1,19,-1
 299 270 l 1,20,-1
 346 309 l 1,21,-1
 472 160 l 1,22,23
 508 214 508 214 526 282.5 c 128,-1,24
 544 351 544 351 544 412 c 0,25,26
 544 505 544 505 503 562.5 c 128,-1,27
 462 620 462 620 377 620 c 0,28,29
 293 620 293 620 236 561 c 128,-1,30
 179 502 179 502 151.5 417 c 128,-1,31
 124 332 124 332 124 256 c 0,32,33
 124 163 124 163 165 105.5 c 128,-1,34
 206 48 206 48 291 48 c 0,35,18
 375 48 375 48 435 110 c 1,19,-1
EndSplineSet
EndChar
StartChar: R
Encoding: 82 82 74
Width: 632
GlyphClass: 2
Flags: W
AnchorPoint: "Anchor-1" 382 668 basechar 0
AnchorPoint: "Anchor-0" 259 0 basechar 0
LayerCount: 2
Fore
SplineSet
198 668 m 1,0,-1
 387 668 l 2,1,2
 485 668 485 668 543.5 622.5 c 128,-1,3
 602 577 602 577 602 498 c 0,4,5
 602 409 602 409 545 349.5 c 128,-1,6
 488 290 488 290 367 288 c 1,7,-1
 514 0 l 1,8,-1
 434 0 l 1,9,-1
 295 285 l 1,10,-1
 186 285 l 1,11,-1
 125 0 l 1,12,-1
 56 0 l 1,13,-1
 198 668 l 1,0,-1
486.5 382.5 m 128,-1,15
 531 421 531 421 531 493 c 0,16,17
 531 548 531 548 490.5 578 c 128,-1,18
 450 608 450 608 379 608 c 2,19,-1
 255 608 l 1,20,-1
 199 344 l 1,21,-1
 367 344 l 2,22,14
 442 344 442 344 486.5 382.5 c 128,-1,15
EndSplineSet
EndChar
StartChar: S
Encoding: 83 83 77
Width: 632
GlyphClass: 2
Flags: W
AnchorPoint: "Anchor-1" 395 668 basechar 0
AnchorPoint: "Anchor-0" 293 0 basechar 0
LayerCount: 2
Fore
SplineSet
190 6 m 128,-1,1
 139 24 139 24 102.5 59.5 c 128,-1,2
 66 95 66 95 55 146 c 1,3,-1
 123 169 l 1,4,5
 134 110 134 110 183.5 79 c 128,-1,6
 233 48 233 48 301 48 c 0,7,8
 351 48 351 48 391.5 66 c 128,-1,9
 432 84 432 84 455 116.5 c 128,-1,10
 478 149 478 149 478 191 c 0,11,12
 478 231 478 231 445.5 257.5 c 128,-1,13
 413 284 413 284 357 304 c 2,14,-1
 274 335 l 2,15,16
 136 384 136 384 136 490 c 0,17,18
 136 546 136 546 169.5 589 c 128,-1,19
 203 632 203 632 258 656 c 128,-1,20
 313 680 313 680 375 680 c 0,21,22
 450 680 450 680 510 648.5 c 128,-1,23
 570 617 570 617 594 557 c 1,24,-1
 525 533 l 1,25,26
 509 575 509 575 465 597.5 c 128,-1,27
 421 620 421 620 369 620 c 0,28,29
 304 620 304 620 256.5 587.5 c 128,-1,30
 209 555 209 555 209 500 c 0,31,32
 209 461 209 461 231.5 437.5 c 128,-1,33
 254 414 254 414 303 397 c 2,34,-1
 388 365 l 2,35,36
 468 336 468 336 509.5 297.5 c 128,-1,37
 551 259 551 259 551 200 c 0,38,39
 551 136 551 136 516.5 88 c 128,-1,40
 482 40 482 40 423 14 c 128,-1,41
 364 -12 364 -12 294 -12 c 0,42,0
 241 -12 241 -12 190 6 c 128,-1,1
EndSplineSet
EndChar
StartChar: U
Encoding: 85 85 87
Width: 632
GlyphClass: 2
Flags: W
AnchorPoint: "Anchor-3" 732 668 basechar 0
AnchorPoint: "Anchor-1" 401 668 basechar 0
LayerCount: 2
Fore
SplineSet
74 178 m 0,1,2
 74 219 74 219 85 272 c 2,3,-1
 169 668 l 1,4,-1
 241 668 l 1,5,-1
 154 258 l 2,6,7
 145 219 145 219 145 185 c 0,8,9
 145 48 145 48 298 48 c 0,10,11
 370 48 370 48 413.5 92 c 128,-1,12
 457 136 457 136 475 224 c 2,13,-1
 569 668 l 1,14,-1
 641 668 l 1,15,-1
 546 223 l 2,16,17
 522 104 522 104 462.5 46 c 128,-1,18
 403 -12 403 -12 301 -12 c 0,19,0
 74 -12 74 -12 74 178 c 0,1,2
EndSplineSet
EndChar
StartChar: a
Encoding: 97 97 112
Width: 632
GlyphClass: 2
Flags: W
AnchorPoint: "Anchor-2" 471 10 basechar 0
AnchorPoint: "Anchor-1" 364 496 basechar 0
AnchorPoint: "Anchor-0" 258 0 basechar 0
LayerCount: 2
Fore
SplineSet
107 21.5 m 128,-1,1
 59 55 59 55 59 114 c 0,2,3
 59 207 59 207 151.5 253.5 c 128,-1,4
 244 300 244 300 450 310 c 1,5,-1
 451 315 l 2,6,7
 455 339 455 339 455 349 c 0,8,9
 455 395 455 395 425 423.5 c 128,-1,10
 395 452 395 452 332 452 c 0,11,12
 283 452 283 452 248.5 429 c 128,-1,13
 214 406 214 406 203 369 c 1,14,-1
 136 389 l 1,15,16
 162 447 162 447 214.5 477 c 128,-1,17
 267 507 267 507 334 507 c 0,18,19
 424 507 424 507 472.5 469.5 c 128,-1,20
 521 432 521 432 521 355 c 0,21,22
 521 325 521 325 514 293 c 2,23,-1
 493 193 l 2,24,25
 469 84 469 84 469 0 c 1,26,-1
 410 0 l 1,27,-1
 408 76 l 1,28,29
 381 38 381 38 333 13 c 128,-1,30
 285 -12 285 -12 224 -12 c 0,31,0
 155 -12 155 -12 107 21.5 c 128,-1,1
357 82.5 m 128,-1,33
 410 122 410 122 426 194 c 2,34,-1
 439 257 l 1,35,36
 272 251 272 251 201 215.5 c 128,-1,37
 130 180 130 180 130 122 c 0,38,39
 130 86 130 86 160 64.5 c 128,-1,40
 190 43 190 43 239 43 c 0,41,32
 304 43 304 43 357 82.5 c 128,-1,33
EndSplineSet
Substitution2: "Single Substitution lookup 14 subtable" ordfeminine
AlternateSubs2: "'aalt' Access All Alternates in Latin lookup 0 subtable" ordfeminine
EndChar
StartChar: b
Encoding: 98 98 123
Width: 632
GlyphClass: 2
Flags: W
AnchorPoint: "Anchor-1" 358 496 basechar 0
AnchorPoint: "Anchor-0" 253 0 basechar 0
LayerCount: 2
Fore
SplineSet
199.5 14 m 128,-1,1
 154 40 154 40 129 91 c 1,2,-1
 96 0 l 1,3,-1
 42 0 l 1,4,-1
 193 708 l 1,5,-1
 262 708 l 1,6,-1
 199 418 l 1,7,8
 232 459 232 459 280.5 483 c 128,-1,9
 329 507 329 507 385 507 c 0,10,11
 474 507 474 507 526.5 449.5 c 128,-1,12
 579 392 579 392 579 298 c 0,13,14
 579 217 579 217 547 146 c 128,-1,15
 515 75 515 75 453.5 31.5 c 128,-1,16
 392 -12 392 -12 308 -12 c 0,17,0
 245 -12 245 -12 199.5 14 c 128,-1,1
418.5 86 m 128,-1,19
 466 125 466 125 487 181.5 c 128,-1,20
 508 238 508 238 508 291 c 0,21,22
 508 361 508 361 470.5 404.5 c 128,-1,23
 433 448 433 448 366 448 c 0,24,25
 298 448 298 448 251 409 c 128,-1,26
 204 370 204 370 180.5 311.5 c 128,-1,27
 157 253 157 253 157 196 c 0,28,29
 157 127 157 127 193.5 87 c 128,-1,30
 230 47 230 47 299 47 c 0,31,18
 371 47 371 47 418.5 86 c 128,-1,19
EndSplineSet
EndChar
StartChar: h
Encoding: 104 104 147
Width: 632
GlyphClass: 2
Flags: W
AnchorPoint: "Anchor-1" 428 796 basechar 0
AnchorPoint: "Anchor-0" 259 0 basechar 0
LayerCount: 2
Fore
SplineSet
207 708 m 1,0,-1
 276 708 l 1,1,-1
 215 421 l 1,2,3
 242 454 242 454 289.5 480.5 c 128,-1,4
 337 507 337 507 392 507 c 0,5,6
 471 507 471 507 508.5 467.5 c 128,-1,7
 546 428 546 428 546 363 c 0,8,9
 546 337 546 337 540 308 c 2,10,-1
 474 0 l 1,11,-1
 405 0 l 1,12,-1
 467 295 l 2,13,14
 474 324 474 324 474 352 c 0,15,16
 474 448 474 448 368 448 c 0,17,18
 328 448 328 448 289.5 426 c 128,-1,19
 251 404 251 404 222.5 363.5 c 128,-1,20
 194 323 194 323 183 270 c 2,21,-1
 126 0 l 1,22,-1
 57 0 l 1,23,-1
 207 708 l 1,0,-1
EndSplineSet
EndChar
StartChar: k
Encoding: 107 107 161
Width: 632
GlyphClass: 2
Flags: W
AnchorPoint: "Anchor-1" 441 796 basechar 0
AnchorPoint: "Anchor-0" 277 0 basechar 0
LayerCount: 2
Fore
SplineSet
239 708 m 1,0,-1
 308 708 l 1,1,-1
 212 254 l 1,2,-1
 507 496 l 1,3,-1
 599 496 l 1,4,-1
 344 291 l 1,5,-1
 523 0 l 1,6,-1
 444 0 l 1,7,-1
 294 250 l 1,8,-1
 193 168 l 1,9,-1
 158 0 l 1,10,-1
 89 0 l 1,11,-1
 239 708 l 1,0,-1
EndSplineSet
EndChar
StartChar: m
Encoding: 109 109 167
Width: 632
GlyphClass: 2
Flags: W
AnchorPoint: "Anchor-1" 366 496 basechar 0
AnchorPoint: "Anchor-0" 264 0 basechar 0
LayerCount: 2
Fore
SplineSet
120 496 m 1,0,-1
 171 496 l 1,1,-1
 169 442 l 1,2,3
 189 470 189 470 220.5 488.5 c 128,-1,4
 252 507 252 507 291 507 c 0,5,6
 370 507 370 507 381 440 c 1,7,8
 399 468 399 468 432.5 487.5 c 128,-1,9
 466 507 466 507 507 507 c 0,10,11
 554 507 554 507 576.5 483.5 c 128,-1,12
 599 460 599 460 599 418 c 0,13,14
 599 400 599 400 594 375 c 2,15,-1
 514 0 l 1,16,-1
 449 0 l 1,17,-1
 524 354 l 2,18,19
 529 377 529 377 529 393 c 0,20,21
 529 448 529 448 476 448 c 0,22,23
 439 448 439 448 409.5 418 c 128,-1,24
 380 388 380 388 368 332 c 2,25,-1
 296 0 l 1,26,-1
 232 0 l 1,27,-1
 308 355 l 2,28,29
 312 374 312 374 312 393 c 0,30,31
 312 448 312 448 261 448 c 0,32,33
 223 448 223 448 192 417.5 c 128,-1,34
 161 387 161 387 149 331 c 2,35,-1
 79 0 l 1,36,-1
 14 0 l 1,37,-1
 120 496 l 1,0,-1
EndSplineSet
EndChar
StartChar: n
Encoding: 110 110 168
Width: 632
GlyphClass: 2
Flags: W
AnchorPoint: "Anchor-1" 369 496 basechar 0
AnchorPoint: "Anchor-0" 258 0 basechar 0
LayerCount: 2
Fore
SplineSet
162 496 m 1,0,-1
 216 496 l 1,1,-1
 213 418 l 1,2,3
 242 454 242 454 288.5 480.5 c 128,-1,4
 335 507 335 507 391 507 c 0,5,6
 469 507 469 507 507 468 c 128,-1,7
 545 429 545 429 545 365 c 0,8,9
 545 343 545 343 538 308 c 2,10,-1
 473 0 l 1,11,-1
 404 0 l 1,12,-1
 466 295 l 2,13,14
 473 332 473 332 473 352 c 0,15,16
 473 448 473 448 366 448 c 0,17,18
 326 448 326 448 288 426 c 128,-1,19
 250 404 250 404 221.5 363.5 c 128,-1,20
 193 323 193 323 182 270 c 2,21,-1
 125 0 l 1,22,-1
 56 0 l 1,23,-1
 162 496 l 1,0,-1
EndSplineSet
EndChar
StartChar: o
Encoding: 111 111 173
Width: 632
GlyphClass: 2
Flags: W
AnchorPoint: "Anchor-3" 643 496 basechar 0
AnchorPoint: "Anchor-2" 503 10 basechar 0
AnchorPoint: "Anchor-1" 365 496 basechar 0
AnchorPoint: "Anchor-0" 262 0 basechar 0
LayerCount: 2
Fore
SplineSet
173 14.5 m 128,-1,1
 122 41 122 41 93 91 c 128,-1,2
 64 141 64 141 64 207 c 0,3,4
 64 289 64 289 99.5 358 c 128,-1,5
 135 427 135 427 199 467 c 128,-1,6
 263 507 263 507 345 507 c 0,7,8
 408 507 408 507 459 480 c 128,-1,9
 510 453 510 453 539 403.5 c 128,-1,10
 568 354 568 354 568 288 c 0,11,12
 568 206 568 206 532.5 137 c 128,-1,13
 497 68 497 68 433.5 28 c 128,-1,14
 370 -12 370 -12 288 -12 c 0,15,0
 224 -12 224 -12 173 14.5 c 128,-1,1
401 81 m 128,-1,17
 448 115 448 115 473 169.5 c 128,-1,18
 498 224 498 224 498 285 c 0,19,20
 498 357 498 357 459 402.5 c 128,-1,21
 420 448 420 448 341 448 c 0,22,23
 278 448 278 448 231.5 414 c 128,-1,24
 185 380 185 380 160 325.5 c 128,-1,25
 135 271 135 271 135 210 c 0,26,27
 135 138 135 138 173.5 92.5 c 128,-1,28
 212 47 212 47 291 47 c 0,29,16
 354 47 354 47 401 81 c 128,-1,17
EndSplineSet
Substitution2: "Single Substitution lookup 14 subtable" ordmasculine
AlternateSubs2: "'aalt' Access All Alternates in Latin lookup 0 subtable" ordmasculine
EndChar
StartChar: q
Encoding: 113 113 184
Width: 632
GlyphClass: 2
Flags: W
AnchorPoint: "Anchor-1" 383 496 basechar 0
AnchorPoint: "Anchor-0" 277 0 basechar 0
LayerCount: 2
Fore
SplineSet
418 -155.5 m 128,-1,1
 395 -137 395 -137 395 -94 c 0,2,3
 395 -74 395 -74 401 -47 c 2,4,-1
 427 75 l 1,5,6
 392 34 392 34 344 11 c 128,-1,7
 296 -12 296 -12 242 -12 c 0,8,9
 155 -12 155 -12 103.5 44.5 c 128,-1,10
 52 101 52 101 52 195 c 0,11,12
 52 275 52 275 83.5 347 c 128,-1,13
 115 419 115 419 176 463 c 128,-1,14
 237 507 237 507 321 507 c 0,15,16
 385 507 385 507 430 479.5 c 128,-1,17
 475 452 475 452 496 402 c 1,18,-1
 531 496 l 1,19,-1
 586 496 l 1,20,-1
 471 -42 l 2,21,22
 467 -66 467 -66 467 -73 c 0,23,24
 467 -114 467 -114 508 -114 c 0,25,26
 534 -114 534 -114 557 -101 c 1,27,-1
 545 -161 l 1,28,29
 514 -174 514 -174 484 -174 c 0,30,0
 441 -174 441 -174 418 -155.5 c 128,-1,1
376 86 m 128,-1,32
 423 125 423 125 446.5 183.5 c 128,-1,33
 470 242 470 242 470 300 c 0,34,35
 470 368 470 368 434 408 c 128,-1,36
 398 448 398 448 330 448 c 0,37,38
 258 448 258 448 211.5 409 c 128,-1,39
 165 370 165 370 144 313.5 c 128,-1,40
 123 257 123 257 123 203 c 0,41,42
 123 134 123 134 160.5 90.5 c 128,-1,43
 198 47 198 47 264 47 c 0,44,31
 329 47 329 47 376 86 c 128,-1,32
EndSplineSet
EndChar
StartChar: r
Encoding: 114 114 185
Width: 632
GlyphClass: 2
Flags: W
AnchorPoint: "Anchor-1" 370 496 basechar 0
AnchorPoint: "Anchor-0" 138 0 basechar 0
LayerCount: 2
Fore
SplineSet
208 496 m 1,0,-1
 260 496 l 1,1,-1
 253 376 l 1,2,3
 298 439 298 439 364.5 471 c 128,-1,4
 431 503 431 503 506 503 c 0,5,6
 545 503 545 503 581 495 c 1,7,-1
 566 421 l 1,8,9
 522 435 522 435 477 435 c 0,10,11
 383 435 383 435 311.5 378 c 128,-1,12
 240 321 240 321 217 213 c 2,13,-1
 172 0 l 1,14,-1
 103 0 l 1,15,-1
 208 496 l 1,0,-1
EndSplineSet
EndChar
StartChar: v
Encoding: 118 118 207
Width: 632
GlyphClass: 2
Flags: W
AnchorPoint: "Anchor-1" 370 496 basechar 0
AnchorPoint: "Anchor-0" 264 0 basechar 0
LayerCount: 2
Fore
SplineSet
116 496 m 1,0,-1
 185 496 l 1,1,-1
 277 85 l 1,2,-1
 281 85 l 1,3,-1
 544 496 l 1,4,-1
 622 496 l 1,5,-1
 294 0 l 1,6,-1
 232 0 l 1,7,-1
 116 496 l 1,0,-1
EndSplineSet
EndChar
StartChar: z
Encoding: 122 122 219
Width: 632
GlyphClass: 2
Flags: W
AnchorPoint: "Anchor-1" 380 496 basechar 0
AnchorPoint: "Anchor-0" 259 0 basechar 0
LayerCount: 2
Fore
SplineSet
60 59 m 1,0,-1
 475 437 l 1,1,-1
 150 437 l 1,2,-1
 162 496 l 1,3,-1
 584 496 l 1,4,-1
 572 437 l 1,5,-1
 156 59 l 1,6,-1
 501 59 l 1,7,-1
 488 0 l 1,8,-1
 47 0 l 1,9,-1
 60 59 l 1,0,-1
EndSplineSet
EndChar
StartChar: braceright
Encoding: 125 125 271
Width: 632
GlyphClass: 1
Flags: W
LayerCount: 2
Fore
SplineSet
83 -108 m 1,0,-1
 217 -108 l 2,1,2
 236 -108 236 -108 245.5 -100.5 c 128,-1,3
 255 -93 255 -93 260 -72 c 2,4,-1
 309 155 l 2,5,6
 322 214 322 214 344.5 240.5 c 128,-1,7
 367 267 367 267 405 273 c 1,8,-1
 406 279 l 1,9,10
 380 291 380 291 367.5 310 c 128,-1,11
 355 329 355 329 355 360 c 0,12,13
 355 377 355 377 362 414 c 2,14,-1
 404 609 l 1,15,-1
 406 626 l 2,16,17
 406 641 406 641 395.5 647.5 c 128,-1,18
 385 654 385 654 360 654 c 2,19,-1
 246 654 l 1,20,-1
 257 708 l 1,21,-1
 360 708 l 2,22,23
 423 708 423 708 448.5 690.5 c 128,-1,24
 474 673 474 673 474 637 c 0,25,26
 474 621 474 621 469 594 c 2,27,-1
 426 397 l 2,28,29
 421 372 421 372 421 359 c 0,30,31
 421 329 421 329 439 315 c 128,-1,32
 457 301 457 301 500 298 c 1,33,-1
 489 248 l 1,34,35
 450 247 450 247 428.5 238.5 c 128,-1,36
 407 230 407 230 395 210.5 c 128,-1,37
 383 191 383 191 375 153 c 2,38,-1
 327 -68 l 2,39,40
 319 -107 319 -107 307.5 -126.5 c 128,-1,41
 296 -146 296 -146 276 -154 c 128,-1,42
 256 -162 256 -162 218 -162 c 2,43,-1
 73 -162 l 1,44,-1
 83 -108 l 1,0,-1
EndSplineSet
EndChar
StartChar: asciitilde
Encoding: 126 126 324
Width: 632
GlyphClass: 1
Flags: W
LayerCount: 2
Fore
SplineSet
121 290 m 128,-1,1
 157 322 157 322 211 322 c 0,2,3
 240 322 240 322 266.5 313.5 c 128,-1,4
 293 305 293 305 328 288 c 0,5,6
 362 273 362 273 383 265.5 c 128,-1,7
 404 258 404 258 427 258 c 0,8,9
 461 258 461 258 482 276 c 128,-1,10
 503 294 503 294 514 331 c 1,11,-1
 570 317 l 1,12,13
 552 260 552 260 516 228.5 c 128,-1,14
 480 197 480 197 426 197 c 0,15,16
 397 197 397 197 370.5 205.5 c 128,-1,17
 344 214 344 214 309 231 c 0,18,19
 275 246 275 246 254 253.5 c 128,-1,20
 233 261 233 261 210 261 c 0,21,22
 176 261 176 261 155 243 c 128,-1,23
 134 225 134 225 123 188 c 1,24,-1
 68 202 l 1,25,0
 85 258 85 258 121 290 c 128,-1,1
EndSplineSet
EndChar
StartChar: yen
Encoding: 165 165 308
Width: 632
GlyphClass: 1
Flags: W
LayerCount: 2
Fore
SplineSet
246 89 m 1,0,-1
 89 89 l 1,1,-1
 98 134 l 1,2,-1
 255 134 l 1,3,-1
 275 226 l 1,4,-1
 118 226 l 1,5,-1
 127 271 l 1,6,-1
 276 271 l 1,7,-1
 135 668 l 1,8,-1
 211 668 l 1,9,-1
 328 326 l 1,10,-1
 332 326 l 1,11,-1
 593 668 l 1,12,-1
 675 668 l 1,13,-1
 365 271 l 1,14,-1
 513 271 l 1,15,-1
 504 226 l 1,16,-1
 349 226 l 1,17,-1
 330 134 l 1,18,-1
 484 134 l 1,19,-1
 475 89 l 1,20,-1
 320 89 l 1,21,-1
 301 0 l 1,22,-1
 227 0 l 1,23,-1
 246 89 l 1,0,-1
EndSplineSet
EndChar
StartChar: brokenbar
Encoding: 166 166 297
Width: 632
GlyphClass: 1
Flags: W
LayerCount: 2
Fore
SplineSet
280 233 m 1,0,-1
 346 233 l 1,1,-1
 262 -162 l 1,2,-1
 196 -162 l 1,3,-1
 280 233 l 1,0,-1
408 838 m 1,4,-1
 474 838 l 1,5,-1
 390 443 l 1,6,-1
 324 443 l 1,7,-1
 408 838 l 1,4,-1
EndSplineSet
EndChar
StartChar: section
Encoding: 167 167 291
Width: 632
GlyphClass: 1
Flags: W
LayerCount: 2
Fore
SplineSet
129.5 -140 m 128,-1,1
 80 -107 80 -107 69 -45 c 1,2,-1
 138 -28 l 1,3,4
 144 -75 144 -75 175 -96 c 128,-1,5
 206 -117 206 -117 251 -117 c 0,6,7
 297 -117 297 -117 332.5 -94 c 128,-1,8
 368 -71 368 -71 368 -36 c 0,9,10
 368 -13 368 -13 349.5 9.5 c 128,-1,11
 331 32 331 32 282 68 c 2,12,-1
 198 130 l 2,13,14
 145 169 145 169 121 200.5 c 128,-1,15
 97 232 97 232 97 270 c 0,16,17
 97 329 97 329 141.5 369.5 c 128,-1,18
 186 410 186 410 257 433 c 1,19,20
 202 487 202 487 202 534 c 0,21,22
 202 578 202 578 228 611.5 c 128,-1,23
 254 645 254 645 297 662.5 c 128,-1,24
 340 680 340 680 388 680 c 0,25,26
 455 680 455 680 504.5 647 c 128,-1,27
 554 614 554 614 565 552 c 1,28,-1
 496 536 l 1,29,30
 490 582 490 582 459 603 c 128,-1,31
 428 624 428 624 383 624 c 0,32,33
 337 624 337 624 301.5 600.5 c 128,-1,34
 266 577 266 577 266 542 c 0,35,36
 266 519 266 519 284.5 497 c 128,-1,37
 303 475 303 475 352 439 c 2,38,-1
 437 377 l 2,39,40
 490 338 490 338 513.5 306 c 128,-1,41
 537 274 537 274 537 237 c 0,42,43
 537 178 537 178 492.5 137.5 c 128,-1,44
 448 97 448 97 377 74 c 1,45,46
 432 22 432 22 432 -27 c 0,47,48
 432 -71 432 -71 406 -104.5 c 128,-1,49
 380 -138 380 -138 337 -155.5 c 128,-1,50
 294 -173 294 -173 246 -173 c 0,51,0
 179 -173 179 -173 129.5 -140 c 128,-1,1
431.5 155.5 m 128,-1,53
 470 182 470 182 470 224 c 0,54,55
 470 251 470 251 450.5 275 c 128,-1,56
 431 299 431 299 389 330 c 2,57,-1
 300 396 l 1,58,59
 241 378 241 378 202.5 351.5 c 128,-1,60
 164 325 164 325 164 283 c 0,61,62
 164 256 164 256 183.5 232 c 128,-1,63
 203 208 203 208 245 177 c 2,64,-1
 334 111 l 1,65,52
 393 129 393 129 431.5 155.5 c 128,-1,53
EndSplineSet
EndChar
StartChar: copyright
Encoding: 169 169 292
Width: 632
GlyphClass: 1
Flags: W
LayerCount: 2
Fore
SplineSet
180.5 33.5 m 128,-1,1
 113 80 113 80 75.5 159 c 128,-1,2
 38 238 38 238 38 334 c 256,3,4
 38 430 38 430 75.5 509 c 128,-1,5
 113 588 113 588 180.5 634.5 c 128,-1,6
 248 681 248 681 334 681 c 256,7,8
 420 681 420 681 487.5 634.5 c 128,-1,9
 555 588 555 588 592.5 509 c 128,-1,10
 630 430 630 430 630 334 c 256,11,12
 630 238 630 238 592.5 159 c 128,-1,13
 555 80 555 80 487.5 33.5 c 128,-1,14
 420 -13 420 -13 334 -13 c 256,15,0
 248 -13 248 -13 180.5 33.5 c 128,-1,1
226.5 194.5 m 128,-1,17
 185 246 185 246 185 335 c 256,18,19
 185 424 185 424 227.5 475 c 128,-1,20
 270 526 270 526 339 526 c 0,21,22
 384 526 384 526 414.5 503 c 128,-1,23
 445 480 445 480 461 444 c 1,24,-1
 407 422 l 1,25,26
 385 475 385 475 337 475 c 0,27,28
 299 475 299 475 273.5 439 c 128,-1,29
 248 403 248 403 248 335 c 0,30,31
 248 268 248 268 273.5 231 c 128,-1,32
 299 194 299 194 337 194 c 0,33,34
 364 194 364 194 381 206 c 128,-1,35
 398 218 398 218 409 246 c 1,36,-1
 464 224 l 1,37,38
 445 188 445 188 415.5 165.5 c 128,-1,39
 386 143 386 143 338 143 c 0,40,16
 268 143 268 143 226.5 194.5 c 128,-1,17
461.5 76.5 m 128,-1,42
 517 116 517 116 548 184 c 128,-1,43
 579 252 579 252 579 334 c 256,44,45
 579 416 579 416 548 484 c 128,-1,46
 517 552 517 552 461.5 591.5 c 128,-1,47
 406 631 406 631 334 631 c 256,48,49
 262 631 262 631 206.5 591.5 c 128,-1,50
 151 552 151 552 120 484 c 128,-1,51
 89 416 89 416 89 334 c 256,52,53
 89 252 89 252 120 184 c 128,-1,54
 151 116 151 116 206.5 76.5 c 128,-1,55
 262 37 262 37 334 37 c 256,56,41
 406 37 406 37 461.5 76.5 c 128,-1,42
EndSplineSet
EndChar
StartChar: ordfeminine
Encoding: 170 170 223
Width: 632
GlyphClass: 1
Flags: W
LayerCount: 2
Fore
SplineSet
233.5 357 m 128,-1,1
 203 379 203 379 203 422 c 0,2,3
 203 486 203 486 266 514.5 c 128,-1,4
 329 543 329 543 460 552 c 1,5,6
 463 569 463 569 463 581 c 0,7,8
 463 647 463 647 389 647 c 0,9,10
 356 647 356 647 333 633.5 c 128,-1,11
 310 620 310 620 299 594 c 1,12,-1
 251 607 l 1,13,14
 266 646 266 646 303 669.5 c 128,-1,15
 340 693 340 693 392 693 c 0,16,17
 454 693 454 693 485.5 663.5 c 128,-1,18
 517 634 517 634 517 582 c 0,19,20
 517 565 517 565 512 540 c 2,21,-1
 492 446 l 2,22,23
 481 404 481 404 481 375 c 0,24,25
 481 363 481 363 485 343 c 1,26,-1
 431 343 l 1,27,-1
 428 382 l 1,28,29
 382 335 382 335 315 335 c 0,30,0
 264 335 264 335 233.5 357 c 128,-1,1
404 406.5 m 128,-1,32
 436 434 436 434 445 476 c 2,33,-1
 451 508 l 1,34,35
 355 503 355 503 308 483 c 128,-1,36
 261 463 261 463 261 423 c 0,37,38
 261 399 261 399 279 389 c 128,-1,39
 297 379 297 379 325 379 c 0,40,31
 372 379 372 379 404 406.5 c 128,-1,32
EndSplineSet
EndChar
StartChar: registered
Encoding: 174 174 293
Width: 632
GlyphClass: 1
Flags: W
LayerCount: 2
Fore
SplineSet
180.5 33.5 m 128,-1,1
 113 80 113 80 75.5 159 c 128,-1,2
 38 238 38 238 38 334 c 256,3,4
 38 430 38 430 75.5 509 c 128,-1,5
 113 588 113 588 180.5 634.5 c 128,-1,6
 248 681 248 681 334 681 c 256,7,8
 420 681 420 681 487.5 634.5 c 128,-1,9
 555 588 555 588 592.5 509 c 128,-1,10
 630 430 630 430 630 334 c 256,11,12
 630 238 630 238 592.5 159 c 128,-1,13
 555 80 555 80 487.5 33.5 c 128,-1,14
 420 -13 420 -13 334 -13 c 256,15,0
 248 -13 248 -13 180.5 33.5 c 128,-1,1
461.5 76.5 m 128,-1,17
 517 116 517 116 548 184 c 128,-1,18
 579 252 579 252 579 334 c 256,19,20
 579 416 579 416 548 484 c 128,-1,21
 517 552 517 552 461.5 591.5 c 128,-1,22
 406 631 406 631 334 631 c 256,23,24
 262 631 262 631 206.5 591.5 c 128,-1,25
 151 552 151 552 120 484 c 128,-1,26
 89 416 89 416 89 334 c 256,27,28
 89 252 89 252 120 184 c 128,-1,29
 151 116 151 116 206.5 76.5 c 128,-1,30
 262 37 262 37 334 37 c 256,31,16
 406 37 406 37 461.5 76.5 c 128,-1,17
222 529 m 1,32,-1
 335 529 l 2,33,34
 395 529 395 529 428.5 499.5 c 128,-1,35
 462 470 462 470 462 417 c 0,36,37
 462 337 462 337 387 311 c 1,38,-1
 479 162 l 1,39,-1
 412 162 l 1,40,-1
 327 302 l 1,41,-1
 280 302 l 1,42,-1
 280 162 l 1,43,-1
 222 162 l 1,44,-1
 222 529 l 1,32,-1
383.5 368 m 128,-1,46
 401 385 401 385 401 417 c 0,47,48
 401 451 401 451 382.5 465.5 c 128,-1,49
 364 480 364 480 328 480 c 2,50,-1
 280 480 l 1,51,-1
 280 351 l 1,52,-1
 332 351 l 2,53,45
 366 351 366 351 383.5 368 c 128,-1,46
EndSplineSet
EndChar
StartChar: uni00B3
Encoding: 179 179 246
Width: 632
GlyphClass: 1
Flags: W
LayerCount: 2
Fore
SplineSet
260 385.5 m 128,-1,1
 223 414 223 414 219 459 c 1,2,-1
 274 471 l 1,3,4
 278 441 278 441 297.5 422 c 128,-1,5
 317 403 317 403 357 403 c 0,6,7
 403 403 403 403 428 431 c 128,-1,8
 453 459 453 459 453 493 c 256,9,10
 453 527 453 527 420 543.5 c 128,-1,11
 387 560 387 560 338 559 c 1,12,-1
 347 605 l 1,13,14
 367 602 367 602 383 602 c 0,15,16
 429 602 429 602 456 621 c 128,-1,17
 483 640 483 640 483 681 c 0,18,19
 483 708 483 708 462.5 724 c 128,-1,20
 442 740 442 740 407 740 c 0,21,22
 343 740 343 740 317 677 c 1,23,-1
 265 689 l 1,24,25
 281 732 281 732 320.5 759 c 128,-1,26
 360 786 360 786 412 786 c 0,27,28
 467 786 467 786 504.5 758 c 128,-1,29
 542 730 542 730 542 683 c 0,30,31
 542 648 542 648 519.5 618 c 128,-1,32
 497 588 497 588 457 575 c 1,33,34
 482 564 482 564 496.5 542 c 128,-1,35
 511 520 511 520 511 493 c 0,36,37
 511 434 511 434 467.5 395.5 c 128,-1,38
 424 357 424 357 359 357 c 0,39,0
 297 357 297 357 260 385.5 c 128,-1,1
EndSplineSet
EndChar
StartChar: paragraph
Encoding: 182 182 290
Width: 632
GlyphClass: 1
Flags: W
LayerCount: 2
Fore
SplineSet
183.5 358.5 m 128,-1,1
 146 403 146 403 146 461 c 0,2,3
 146 483 146 483 150 500 c 0,4,5
 166 577 166 577 230.5 622.5 c 128,-1,6
 295 668 295 668 384 668 c 2,7,-1
 634 668 l 1,8,-1
 623 618 l 1,9,-1
 586 618 l 1,10,-1
 420 -162 l 1,11,-1
 361 -162 l 1,12,-1
 527 618 l 1,13,-1
 415 618 l 1,14,-1
 249 -162 l 1,15,-1
 190 -162 l 1,16,-1
 288 296 l 1,17,0
 221 314 221 314 183.5 358.5 c 128,-1,1
EndSplineSet
EndChar
StartChar: guillemotright
Encoding: 187 187 281
Width: 632
GlyphClass: 1
Flags: W
LayerCount: 2
Fore
SplineSet
454 255 m 1,0,-1
 348 460 l 1,1,-1
 420 460 l 1,2,-1
 528 250 l 1,3,-1
 339 40 l 1,4,-1
 258 40 l 1,5,-1
 454 255 l 1,0,-1
255 261 m 1,6,-1
 149 460 l 1,7,-1
 221 460 l 1,8,-1
 330 255 l 1,9,-1
 140 40 l 1,10,-1
 59 40 l 1,11,-1
 255 261 l 1,6,-1
EndSplineSet
EndChar
StartChar: threequarters
Encoding: 190 190 243
Width: 632
GlyphClass: 3
Flags: W
LayerCount: 2
Fore
SplineSet
562 668 m 1,0,-1
 630 668 l 1,1,-1
 128 0 l 1,2,-1
 60 0 l 1,3,-1
 562 668 l 1,0,-1
460 64 m 1,4,-1
 304 64 l 1,5,-1
 314 113 l 1,6,-1
 509 305 l 1,7,-1
 566 305 l 1,8,-1
 525 114 l 1,9,-1
 574 114 l 1,10,-1
 563 64 l 1,11,-1
 515 64 l 1,12,-1
 501 0 l 1,13,-1
 446 0 l 1,14,-1
 460 64 l 1,4,-1
471 114 m 1,15,-1
 495 228 l 1,16,-1
 493 228 l 1,17,-1
 379 114 l 1,18,-1
 471 114 l 1,15,-1
111.5 384.5 m 128,-1,20
 80 402 80 402 72 438 c 1,21,-1
 126 453 l 1,22,23
 130 432 130 432 144 421.5 c 128,-1,24
 158 411 158 411 181 411 c 0,25,26
 208 411 208 411 224.5 424.5 c 128,-1,27
 241 438 241 438 241 463 c 0,28,29
 241 486 241 486 220.5 496 c 128,-1,30
 200 506 200 506 165 504 c 1,31,-1
 175 552 l 1,32,33
 182 551 182 551 195 551 c 0,34,35
 228 551 228 551 246 562.5 c 128,-1,36
 264 574 264 574 264 598 c 0,37,38
 264 615 264 615 250.5 625 c 128,-1,39
 237 635 237 635 219 635 c 0,40,41
 174 635 174 635 157 596 c 1,42,-1
 104 614 l 1,43,44
 120 646 120 646 149.5 663 c 128,-1,45
 179 680 179 680 218 680 c 0,46,47
 261 680 261 680 291.5 660 c 128,-1,48
 322 640 322 640 322 604 c 0,49,50
 322 579 322 579 306 557 c 128,-1,51
 290 535 290 535 264 525 c 1,52,53
 279 517 279 517 289 500.5 c 128,-1,54
 299 484 299 484 299 466 c 0,55,56
 299 424 299 424 266.5 395.5 c 128,-1,57
 234 367 234 367 183 367 c 0,58,19
 143 367 143 367 111.5 384.5 c 128,-1,20
EndSplineSet
Ligature2: "'frac' Diagonal Fractions in Latin lookup 7 subtable" three slash four
EndChar
StartChar: Aring
Encoding: 197 197 10
Width: 632
GlyphClass: 2
Flags: W
AnchorPoint: "Anchor-2" 547 10 basechar 0
AnchorPoint: "Anchor-1" 431 839 basechar 0
AnchorPoint: "Anchor-0" 263 0 basechar 0
LayerCount: 2
Fore
SplineSet
323 689 m 128,-1,1
 309 712 309 712 309 739 c 0,2,3
 309 780 309 780 339 809.5 c 128,-1,4
 369 839 369 839 410 839 c 0,5,6
 452 839 452 839 481.5 809.5 c 128,-1,7
 511 780 511 780 511 739 c 0,8,9
 511 708 511 708 493 682 c 128,-1,10
 475 656 475 656 446 646 c 1,11,-1
 545 0 l 1,12,-1
 477 0 l 1,13,-1
 454 161 l 1,14,-1
 145 161 l 1,15,-1
 54 0 l 1,16,-1
 -19 0 l 1,17,-1
 359 654 l 1,18,0
 337 666 337 666 323 689 c 128,-1,1
447 221 m 1,19,-1
 394 593 l 1,20,-1
 390 593 l 1,21,-1
 178 221 l 1,22,-1
 447 221 l 1,19,-1
448 700.5 m 128,-1,24
 464 716 464 716 464 738 c 0,25,26
 464 761 464 761 448.5 776.5 c 128,-1,27
 433 792 433 792 410 792 c 0,28,29
 388 792 388 792 372 776 c 128,-1,30
 356 760 356 760 356 738 c 256,31,32
 356 716 356 716 372 700.5 c 128,-1,33
 388 685 388 685 410 685 c 256,34,23
 432 685 432 685 448 700.5 c 128,-1,24
EndSplineSet
EndChar
StartChar: AE
Encoding: 198 198 12
Width: 632
GlyphClass: 2
Flags: W
AnchorPoint: "Anchor-1" 408 668 basechar 0
AnchorPoint: "Anchor-0" 266 0 basechar 0
LayerCount: 2
Fore
SplineSet
351 668 m 1,0,-1
 707 668 l 1,1,-1
 694 609 l 1,2,-1
 450 609 l 1,3,-1
 400 373 l 1,4,-1
 589 373 l 1,5,-1
 577 314 l 1,6,-1
 387 314 l 1,7,-1
 333 59 l 1,8,-1
 581 59 l 1,9,-1
 568 0 l 1,10,-1
 254 0 l 1,11,-1
 289 162 l 1,12,-1
 117 162 l 1,13,-1
 22 0 l 1,14,-1
 -48 0 l 1,15,-1
 351 668 l 1,0,-1
301 219 m 1,16,-1
 384 610 l 1,17,-1
 380 610 l 1,18,-1
 150 219 l 1,19,-1
 301 219 l 1,16,-1
EndSplineSet
EndChar
StartChar: Thorn
Encoding: 222 222 72
Width: 632
GlyphClass: 2
Flags: W
AnchorPoint: "Anchor-1" 391 668 basechar 0
AnchorPoint: "Anchor-0" 249 0 basechar 0
LayerCount: 2
Fore
SplineSet
201 668 m 1,0,-1
 270 668 l 1,1,-1
 242 536 l 1,2,-1
 362 536 l 2,3,4
 469 536 469 536 529 490 c 128,-1,5
 589 444 589 444 589 364 c 0,6,7
 589 263 589 263 525 203.5 c 128,-1,8
 461 144 461 144 350 144 c 2,9,-1
 158 144 l 1,10,-1
 128 0 l 1,11,-1
 59 0 l 1,12,-1
 201 668 l 1,0,-1
474.5 244 m 128,-1,14
 518 284 518 284 518 358 c 0,15,16
 518 416 518 416 475.5 446 c 128,-1,17
 433 476 433 476 357 476 c 2,18,-1
 230 476 l 1,19,-1
 172 204 l 1,20,-1
 353 204 l 2,21,13
 431 204 431 204 474.5 244 c 128,-1,14
EndSplineSet
EndChar
StartChar: germandbls
Encoding: 223 223 193
Width: 632
GlyphClass: 1
Flags: W
LayerCount: 2
Fore
SplineSet
246 -7 m 1,1,-1
 241 55 l 1,2,3
 262 50 262 50 284 47.5 c 128,-1,4
 306 45 306 45 319 45 c 0,5,6
 378 45 378 45 421 68.5 c 128,-1,7
 464 92 464 92 486 133 c 128,-1,8
 508 174 508 174 508 224 c 0,9,10
 508 270 508 270 482 305 c 128,-1,11
 456 340 456 340 413 359 c 128,-1,12
 370 378 370 378 321 378 c 2,13,-1
 317 378 l 1,14,-1
 330 438 l 1,15,16
 336 437 336 437 348 437 c 0,17,18
 406 437 406 437 450.5 463.5 c 128,-1,19
 495 490 495 490 495 539 c 0,20,21
 495 579 495 579 456.5 600.5 c 128,-1,22
 418 622 418 622 368 622 c 0,23,24
 240 622 240 622 210 482 c 2,25,-1
 108 0 l 1,26,-1
 38 0 l 1,27,-1
 143 492 l 2,28,29
 162 582 162 582 219 631 c 128,-1,30
 276 680 276 680 367 680 c 0,31,32
 420 680 420 680 464 663 c 128,-1,33
 508 646 508 646 533.5 615 c 128,-1,34
 559 584 559 584 559 543 c 0,35,36
 559 494 559 494 527 457.5 c 128,-1,37
 495 421 495 421 440 404 c 1,38,39
 508 383 508 383 542.5 334.5 c 128,-1,40
 577 286 577 286 577 225 c 0,41,42
 577 163 577 163 547 108.5 c 128,-1,43
 517 54 517 54 458.5 20 c 128,-1,44
 400 -14 400 -14 318 -14 c 0,45,0
 283 -14 283 -14 246 -7 c 1,1,-1
EndSplineSet
EndChar
StartChar: ae
Encoding: 230 230 122
Width: 632
GlyphClass: 2
Flags: W
AnchorPoint: "Anchor-1" 369 496 basechar 0
AnchorPoint: "Anchor-0" 263 0 basechar 0
LayerCount: 2
Fore
SplineSet
20.5 19.5 m 128,-1,1
 -17 51 -17 51 -17 108 c 0,2,3
 -17 188 -17 188 50.5 234.5 c 128,-1,4
 118 281 118 281 277 288 c 1,5,-1
 281 307 l 2,6,7
 288 346 288 346 288 369 c 0,8,9
 288 455 288 455 217 455 c 0,10,11
 154 455 154 455 116 368 c 1,12,-1
 58 386 l 1,13,14
 115 507 115 507 224 507 c 0,15,16
 274 507 274 507 302.5 482 c 128,-1,17
 331 457 331 457 339 412 c 1,18,19
 369 458 369 458 408.5 482.5 c 128,-1,20
 448 507 448 507 493 507 c 0,21,22
 563 507 563 507 597 457.5 c 128,-1,23
 631 408 631 408 631 331 c 0,24,25
 631 286 631 286 620 239 c 1,26,-1
 324 239 l 1,27,28
 319 209 319 209 319 184 c 0,29,30
 319 123 319 123 343.5 82 c 128,-1,31
 368 41 368 41 421 41 c 0,32,33
 449 41 449 41 472.5 56 c 128,-1,34
 496 71 496 71 521 103 c 1,35,-1
 573 82 l 1,36,37
 541 38 541 38 503 13 c 128,-1,38
 465 -12 465 -12 416 -12 c 0,39,40
 302 -12 302 -12 273 98 c 1,41,42
 216 -12 216 -12 113 -12 c 0,43,0
 58 -12 58 -12 20.5 19.5 c 128,-1,1
204.5 74 m 128,-1,45
 242 109 242 109 256 180 c 2,46,-1
 267 239 l 1,47,48
 145 233 145 233 94.5 202 c 128,-1,49
 44 171 44 171 44 116 c 0,50,51
 44 79 44 79 65 59 c 128,-1,52
 86 39 86 39 123 39 c 0,53,44
 167 39 167 39 204.5 74 c 128,-1,45
571 336 m 0,55,56
 571 387 571 387 550 420 c 128,-1,57
 529 453 529 453 484 453 c 0,58,59
 430 453 430 453 391.5 405.5 c 128,-1,60
 353 358 353 358 334 288 c 1,61,-1
 567 288 l 1,62,54
 571 309 571 309 571 336 c 0,55,56
EndSplineSet
EndChar
StartChar: thorn
Encoding: 254 254 183
Width: 632
GlyphClass: 2
Flags: W
AnchorPoint: "Anchor-1" 367 496 basechar 0
AnchorPoint: "Anchor-0" 262 0 basechar 0
LayerCount: 2
Fore
SplineSet
192 708 m 1,0,-1
 262 708 l 1,1,-1
 200 417 l 1,2,3
 234 459 234 459 282.5 483 c 128,-1,4
 331 507 331 507 387 507 c 0,5,6
 475 507 475 507 527.5 449.5 c 128,-1,7
 580 392 580 392 580 298 c 0,8,9
 580 217 580 217 548 146 c 128,-1,10
 516 75 516 75 454.5 31.5 c 128,-1,11
 393 -12 393 -12 309 -12 c 0,12,13
 247 -12 247 -12 201 14 c 128,-1,14
 155 40 155 40 131 90 c 1,15,-1
 78 -162 l 1,16,-1
 8 -162 l 1,17,-1
 192 708 l 1,0,-1
419.5 86 m 128,-1,19
 467 125 467 125 488 181.5 c 128,-1,20
 509 238 509 238 509 291 c 0,21,22
 509 361 509 361 471.5 404.5 c 128,-1,23
 434 448 434 448 367 448 c 0,24,25
 299 448 299 448 252 409 c 128,-1,26
 205 370 205 370 181.5 311.5 c 128,-1,27
 158 253 158 253 158 196 c 0,28,29
 158 127 158 127 194.5 87 c 128,-1,30
 231 47 231 47 300 47 c 0,31,18
 372 47 372 47 419.5 86 c 128,-1,19
EndSplineSet
EndChar
StartChar: Aogonek
Encoding: 260 260 9
Width: 632
GlyphClass: 2
Flags: W
AnchorPoint: "Anchor-1" 405 668 basechar 0
LayerCount: 2
Fore
SplineSet
368 668 m 1,0,-1
 443 668 l 1,1,-1
 545 0 l 1,2,3
 505 -11 505 -11 472.5 -35 c 128,-1,4
 440 -59 440 -59 440 -89 c 0,5,6
 440 -123 440 -123 491 -123 c 1,7,-1
 519 -119 l 1,8,-1
 509 -164 l 1,9,10
 493 -169 493 -169 476 -169 c 0,11,12
 436 -169 436 -169 408 -151.5 c 128,-1,13
 380 -134 380 -134 380 -101 c 0,14,15
 380 -38 380 -38 476 7 c 1,16,-1
 454 161 l 1,17,-1
 145 161 l 1,18,-1
 54 0 l 1,19,-1
 -19 0 l 1,20,-1
 368 668 l 1,0,-1
447 221 m 1,21,-1
 394 593 l 1,22,-1
 390 593 l 1,23,-1
 178 221 l 1,24,-1
 447 221 l 1,21,-1
EndSplineSet
EndChar
StartChar: aogonek
Encoding: 261 261 119
Width: 632
GlyphClass: 2
Flags: W
AnchorPoint: "Anchor-1" 364 496 basechar 0
LayerCount: 2
Fore
SplineSet
330 -151.5 m 128,-1,1
 304 -134 304 -134 304 -103 c 0,2,3
 304 -66 304 -66 334 -37.5 c 128,-1,4
 364 -9 364 -9 410 11 c 1,5,-1
 408 76 l 1,6,7
 381 38 381 38 333 13 c 128,-1,8
 285 -12 285 -12 224 -12 c 0,9,10
 155 -12 155 -12 107 21.5 c 128,-1,11
 59 55 59 55 59 114 c 0,12,13
 59 207 59 207 151.5 253.5 c 128,-1,14
 244 300 244 300 450 310 c 1,15,-1
 451 315 l 2,16,17
 455 339 455 339 455 349 c 0,18,19
 455 395 455 395 425 423.5 c 128,-1,20
 395 452 395 452 332 452 c 0,21,22
 283 452 283 452 248.5 429 c 128,-1,23
 214 406 214 406 203 369 c 1,24,-1
 136 389 l 1,25,26
 162 447 162 447 214.5 477 c 128,-1,27
 267 507 267 507 334 507 c 0,28,29
 424 507 424 507 472.5 469.5 c 128,-1,30
 521 432 521 432 521 355 c 0,31,32
 521 325 521 325 514 293 c 2,33,-1
 493 193 l 2,34,35
 469 84 469 84 469 0 c 1,36,37
 428 -11 428 -11 396 -35.5 c 128,-1,38
 364 -60 364 -60 364 -89 c 0,39,40
 364 -123 364 -123 416 -123 c 0,41,42
 428 -123 428 -123 444 -119 c 1,43,-1
 434 -165 l 1,44,45
 415 -169 415 -169 395 -169 c 0,46,0
 356 -169 356 -169 330 -151.5 c 128,-1,1
357 82.5 m 128,-1,48
 410 122 410 122 426 194 c 2,49,-1
 439 257 l 1,50,51
 272 251 272 251 201 215.5 c 128,-1,52
 130 180 130 180 130 122 c 0,53,54
 130 86 130 86 160 64.5 c 128,-1,55
 190 43 190 43 239 43 c 0,56,47
 304 43 304 43 357 82.5 c 128,-1,48
EndSplineSet
EndChar
StartChar: dcaron
Encoding: 271 271 130
Width: 632
GlyphClass: 1
Flags: W
LayerCount: 2
Fore
SplineSet
82 45 m 128,-1,1
 37 102 37 102 37 191 c 0,2,3
 37 272 37 272 67 344.5 c 128,-1,4
 97 417 97 417 154 462 c 128,-1,5
 211 507 211 507 289 507 c 0,6,7
 344 507 344 507 384.5 480 c 128,-1,8
 425 453 425 453 444 402 c 1,9,-1
 508 708 l 1,10,-1
 577 708 l 1,11,-1
 466 185 l 2,12,13
 445 87 445 87 443 0 c 1,14,-1
 379 0 l 1,15,-1
 374 74 l 1,16,17
 341 34 341 34 298.5 11 c 128,-1,18
 256 -12 256 -12 208 -12 c 0,19,0
 127 -12 127 -12 82 45 c 128,-1,1
332 90 m 128,-1,21
 375 133 375 133 396 194.5 c 128,-1,22
 417 256 417 256 417 309 c 0,23,24
 417 373 417 373 386.5 410.5 c 128,-1,25
 356 448 356 448 294 448 c 0,26,27
 231 448 231 448 188.5 409 c 128,-1,28
 146 370 146 370 126 311.5 c 128,-1,29
 106 253 106 253 106 197 c 0,30,31
 106 130 106 130 138 88.5 c 128,-1,32
 170 47 170 47 229 47 c 0,33,20
 289 47 289 47 332 90 c 128,-1,21
652 708 m 128,-1,35
 662 720 662 720 677 720 c 0,36,37
 687 720 687 720 694 715 c 128,-1,38
 701 710 701 710 701 700 c 256,39,40
 701 690 701 690 694.5 675 c 128,-1,41
 688 660 688 660 681 648 c 2,42,-1
 622 540 l 1,43,-1
 587 540 l 1,44,-1
 632 669 l 2,45,34
 642 696 642 696 652 708 c 128,-1,35
EndSplineSet
EndChar
StartChar: dcroat
Encoding: 273 273 131
Width: 632
GlyphClass: 1
Flags: W
LayerCount: 2
Fore
SplineSet
106.5 45.5 m 128,-1,1
 54 103 54 103 54 197 c 0,2,3
 54 278 54 278 86 349 c 128,-1,4
 118 420 118 420 179.5 463.5 c 128,-1,5
 241 507 241 507 325 507 c 0,6,7
 389 507 389 507 434.5 479.5 c 128,-1,8
 480 452 480 452 501 400 c 1,9,-1
 535 559 l 1,10,-1
 371 559 l 1,11,-1
 381 604 l 1,12,-1
 545 604 l 1,13,-1
 567 708 l 1,14,-1
 636 708 l 1,15,-1
 614 604 l 1,16,-1
 678 604 l 1,17,-1
 668 559 l 1,18,-1
 605 559 l 1,19,-1
 525 185 l 2,20,21
 504 87 504 87 502 0 c 1,22,-1
 438 0 l 1,23,-1
 433 76 l 1,24,25
 397 34 397 34 349.5 11 c 128,-1,26
 302 -12 302 -12 247 -12 c 0,27,0
 159 -12 159 -12 106.5 45.5 c 128,-1,1
381 86 m 128,-1,29
 428 125 428 125 451.5 183.5 c 128,-1,30
 475 242 475 242 475 299 c 0,31,32
 475 368 475 368 438.5 408 c 128,-1,33
 402 448 402 448 333 448 c 0,34,35
 261 448 261 448 214 409 c 128,-1,36
 167 370 167 370 146 313.5 c 128,-1,37
 125 257 125 257 125 204 c 0,38,39
 125 134 125 134 162.5 90.5 c 128,-1,40
 200 47 200 47 267 47 c 256,41,28
 334 47 334 47 381 86 c 128,-1,29
EndSplineSet
EndChar
StartChar: Eogonek
Encoding: 280 280 31
Width: 632
GlyphClass: 2
Flags: W
AnchorPoint: "Anchor-1" 282 668 basechar 0
LayerCount: 2
Fore
SplineSet
219 668 m 1,0,-1
 626 668 l 1,1,-1
 613 606 l 1,2,-1
 278 606 l 1,3,-1
 228 375 l 1,4,-1
 491 375 l 1,5,-1
 478 313 l 1,6,-1
 215 313 l 1,7,-1
 162 62 l 1,8,-1
 501 62 l 1,9,-1
 488 0 l 1,10,11
 448 -11 448 -11 416 -35 c 128,-1,12
 384 -59 384 -59 384 -89 c 0,13,14
 384 -123 384 -123 434 -123 c 0,15,16
 440 -123 440 -123 448 -121.5 c 128,-1,17
 456 -120 456 -120 462 -119 c 1,18,-1
 453 -164 l 1,19,20
 437 -169 437 -169 419 -169 c 0,21,22
 379 -169 379 -169 351 -151.5 c 128,-1,23
 323 -134 323 -134 323 -101 c 0,24,25
 323 -41 323 -41 406 0 c 1,26,-1
 77 0 l 1,27,-1
 219 668 l 1,0,-1
EndSplineSet
EndChar
StartChar: eogonek
Encoding: 281 281 141
Width: 632
GlyphClass: 2
Flags: W
AnchorPoint: "Anchor-1" 261 496 basechar 0
LayerCount: 2
Fore
SplineSet
288.5 -164.5 m 128,-1,1
 262 -147 262 -147 262 -114 c 0,2,3
 262 -86 262 -86 279 -59 c 128,-1,4
 296 -32 296 -32 324 -11 c 1,5,6
 254 -15 254 -15 198 8 c 128,-1,7
 142 31 142 31 110 80.5 c 128,-1,8
 78 130 78 130 78 201 c 0,9,10
 78 280 78 280 112 350.5 c 128,-1,11
 146 421 146 421 208 464 c 128,-1,12
 270 507 270 507 350 507 c 0,13,14
 415 507 415 507 463 480 c 128,-1,15
 511 453 511 453 536 406 c 128,-1,16
 561 359 561 359 561 301 c 0,17,18
 561 268 561 268 554 239 c 1,19,-1
 149 239 l 1,20,21
 148 229 148 229 148 211 c 0,22,23
 148 133 148 133 190.5 90 c 128,-1,24
 233 47 233 47 311 47 c 0,25,26
 353 47 353 47 384 61.5 c 128,-1,27
 415 76 415 76 438 105 c 1,28,-1
 502 79 l 1,29,30
 465 33 465 33 405 5 c 0,31,32
 372 -11 372 -11 347.5 -39.5 c 128,-1,33
 323 -68 323 -68 323 -96 c 0,34,35
 323 -116 323 -116 337.5 -126 c 128,-1,36
 352 -136 352 -136 376 -136 c 0,37,38
 386 -136 386 -136 402 -132 c 1,39,-1
 392 -177 l 1,40,41
 375 -182 375 -182 359 -182 c 0,42,0
 315 -182 315 -182 288.5 -164.5 c 128,-1,1
495 308 m 0,44,45
 495 368 495 368 454.5 408.5 c 128,-1,46
 414 449 414 449 347 449 c 0,47,48
 274 449 274 449 226 404.5 c 128,-1,49
 178 360 178 360 158 291 c 1,50,-1
 494 291 l 1,51,43
 495 297 495 297 495 308 c 0,44,45
EndSplineSet
EndChar
StartChar: uni0123
Encoding: 291 291 145
Width: 632
GlyphClass: 2
Flags: W
AnchorPoint: "Anchor-1" 438 757 basechar 0
AnchorPoint: "Anchor-0" 214 -251 basechar 0
LayerCount: 2
Fore
SplineSet
122 -159.5 m 128,-1,1
 60 -130 60 -130 46 -72 c 1,2,-1
 111 -53 l 1,3,4
 121 -91 121 -91 165.5 -110 c 128,-1,5
 210 -129 210 -129 264 -129 c 0,6,7
 322 -129 322 -129 363 -100.5 c 128,-1,8
 404 -72 404 -72 415 -15 c 2,9,-1
 437 85 l 1,10,11
 401 49 401 49 354.5 27.5 c 128,-1,12
 308 6 308 6 255 6 c 0,13,14
 193 6 193 6 149.5 33.5 c 128,-1,15
 106 61 106 61 84 107.5 c 128,-1,16
 62 154 62 154 62 211 c 0,17,18
 62 290 62 290 95.5 358 c 128,-1,19
 129 426 129 426 190 466.5 c 128,-1,20
 251 507 251 507 331 507 c 0,21,22
 388 507 388 507 435.5 479.5 c 128,-1,23
 483 452 483 452 503 404 c 1,24,-1
 538 496 l 1,25,-1
 592 496 l 1,26,-1
 483 -20 l 2,27,28
 465 -102 465 -102 406 -145.5 c 128,-1,29
 347 -189 347 -189 255 -189 c 0,30,0
 184 -189 184 -189 122 -159.5 c 128,-1,1
400 114 m 128,-1,32
 453 163 453 163 471 247 c 0,33,34
 477 277 477 277 477 304 c 0,35,36
 477 369 477 369 441.5 408.5 c 128,-1,37
 406 448 406 448 337 448 c 0,38,39
 273 448 273 448 226.5 415.5 c 128,-1,40
 180 383 180 383 156.5 330 c 128,-1,41
 133 277 133 277 133 216 c 0,42,43
 133 149 133 149 170 107 c 128,-1,44
 207 65 207 65 275 65 c 0,45,31
 347 65 347 65 400 114 c 128,-1,32
345 643 m 0,47,48
 345 674 345 674 364 701 c 128,-1,49
 383 728 383 728 413 743 c 128,-1,50
 443 758 443 758 475 757 c 1,51,-1
 502 725 l 1,52,53
 464 727 464 727 433 706 c 128,-1,54
 402 685 402 685 402 645 c 0,55,56
 402 614 402 614 428 595 c 1,57,-1
 378 575 l 1,58,46
 345 605 345 605 345 643 c 0,47,48
EndSplineSet
EndChar
StartChar: Hbar
Encoding: 294 294 38
Width: 632
GlyphClass: 1
Flags: W
LayerCount: 2
Fore
SplineSet
120 514 m 1,0,-1
 66 514 l 1,1,-1
 77 567 l 1,2,-1
 131 567 l 1,3,-1
 152 668 l 1,4,-1
 224 668 l 1,5,-1
 202 567 l 1,6,-1
 565 567 l 1,7,-1
 586 668 l 1,8,-1
 658 668 l 1,9,-1
 637 567 l 1,10,-1
 690 567 l 1,11,-1
 679 514 l 1,12,-1
 625 514 l 1,13,-1
 516 0 l 1,14,-1
 444 0 l 1,15,-1
 511 314 l 1,16,-1
 148 314 l 1,17,-1
 82 0 l 1,18,-1
 10 0 l 1,19,-1
 120 514 l 1,0,-1
524 376 m 1,20,-1
 554 514 l 1,21,-1
 191 514 l 1,22,-1
 161 376 l 1,23,-1
 524 376 l 1,20,-1
EndSplineSet
EndChar
StartChar: hbar
Encoding: 295 295 148
Width: 632
GlyphClass: 1
Flags: W
LayerCount: 2
Fore
SplineSet
175 559 m 1,0,-1
 112 559 l 1,1,-1
 121 604 l 1,2,-1
 185 604 l 1,3,-1
 207 708 l 1,4,-1
 276 708 l 1,5,-1
 254 604 l 1,6,-1
 418 604 l 1,7,-1
 409 559 l 1,8,-1
 245 559 l 1,9,-1
 215 421 l 1,10,11
 242 454 242 454 289.5 480.5 c 128,-1,12
 337 507 337 507 392 507 c 0,13,14
 471 507 471 507 508.5 467.5 c 128,-1,15
 546 428 546 428 546 363 c 0,16,17
 546 337 546 337 540 308 c 2,18,-1
 474 0 l 1,19,-1
 405 0 l 1,20,-1
 467 295 l 2,21,22
 474 324 474 324 474 352 c 0,23,24
 474 448 474 448 368 448 c 0,25,26
 328 448 328 448 289.5 426 c 128,-1,27
 251 404 251 404 222.5 363.5 c 128,-1,28
 194 323 194 323 183 270 c 2,29,-1
 126 0 l 1,30,-1
 57 0 l 1,31,-1
 175 559 l 1,0,-1
EndSplineSet
EndChar
StartChar: Iogonek
Encoding: 302 302 47
Width: 632
GlyphClass: 2
Flags: W
AnchorPoint: "Anchor-1" 405 668 basechar 0
LayerCount: 2
Fore
SplineSet
97 53 m 1,0,-1
 239 53 l 1,1,-1
 358 615 l 1,2,-1
 216 615 l 1,3,-1
 227 668 l 1,4,-1
 583 668 l 1,5,-1
 571 615 l 1,6,-1
 429 615 l 1,7,-1
 310 53 l 1,8,-1
 452 53 l 1,9,-1
 441 0 l 1,10,11
 401 -11 401 -11 369 -35 c 128,-1,12
 337 -59 337 -59 337 -89 c 0,13,14
 337 -123 337 -123 387 -123 c 0,15,16
 393 -123 393 -123 401 -121.5 c 128,-1,17
 409 -120 409 -120 415 -119 c 1,18,-1
 405 -164 l 1,19,20
 390 -169 390 -169 372 -169 c 0,21,22
 332 -169 332 -169 304 -151.5 c 128,-1,23
 276 -134 276 -134 276 -101 c 0,24,25
 276 -41 276 -41 359 0 c 1,26,-1
 85 0 l 1,27,-1
 97 53 l 1,0,-1
EndSplineSet
EndChar
StartChar: iogonek
Encoding: 303 303 156
Width: 632
GlyphClass: 2
Flags: W
AnchorPoint: "Anchor-1" 411 705 basechar 0
LayerCount: 2
Fore
SplineSet
72 55 m 1,0,-1
 250 55 l 1,1,-1
 331 441 l 1,2,-1
 179 441 l 1,3,-1
 191 496 l 1,4,-1
 413 496 l 1,5,-1
 319 55 l 1,6,-1
 496 55 l 1,7,-1
 484 0 l 1,8,9
 443 -11 443 -11 411 -35.5 c 128,-1,10
 379 -60 379 -60 379 -89 c 0,11,12
 379 -123 379 -123 431 -123 c 0,13,14
 443 -123 443 -123 459 -119 c 1,15,-1
 449 -165 l 1,16,17
 430 -169 430 -169 410 -169 c 0,18,19
 371 -169 371 -169 345 -151.5 c 128,-1,20
 319 -134 319 -134 319 -103 c 0,21,22
 319 -43 319 -43 402 0 c 1,23,-1
 60 0 l 1,24,-1
 72 55 l 1,0,-1
360.5 612 m 128,-1,26
 344 628 344 628 344 650 c 0,27,28
 344 673 344 673 360.5 689 c 128,-1,29
 377 705 377 705 399 705 c 256,30,31
 421 705 421 705 437 689 c 128,-1,32
 453 673 453 673 453 650 c 0,33,34
 453 628 453 628 437 612 c 128,-1,35
 421 596 421 596 399 596 c 256,36,25
 377 596 377 596 360.5 612 c 128,-1,26
EndSplineSet
EndChar
StartChar: dotlessi
Encoding: 305 305 150
Width: 632
GlyphClass: 2
Flags: W
AnchorPoint: "Anchor-2" 486 10 basechar 0
AnchorPoint: "Anchor-1" 367 496 basechar 0
AnchorPoint: "Anchor-0" 260 0 basechar 0
LayerCount: 2
Fore
SplineSet
72 55 m 1,0,-1
 250 55 l 1,1,-1
 331 441 l 1,2,-1
 179 441 l 1,3,-1
 191 496 l 1,4,-1
 413 496 l 1,5,-1
 319 55 l 1,6,-1
 496 55 l 1,7,-1
 484 0 l 1,8,-1
 60 0 l 1,9,-1
 72 55 l 1,0,-1
EndSplineSet
EndChar
StartChar: ij
Encoding: 307 307 157
Width: 632
GlyphClass: 1
Flags: W
LayerCount: 2
Fore
SplineSet
219 -102 m 1,0,-1
 313 -102 l 2,1,2
 340 -102 340 -102 354 -96.5 c 128,-1,3
 368 -91 368 -91 377 -73 c 128,-1,4
 386 -55 386 -55 395 -15 c 2,5,-1
 492 441 l 1,6,-1
 430 441 l 1,7,-1
 441 496 l 1,8,-1
 573 496 l 1,9,-1
 463 -24 l 2,10,11
 450 -81 450 -81 433.5 -110 c 128,-1,12
 417 -139 417 -139 391 -150 c 128,-1,13
 365 -161 365 -161 321 -161 c 2,14,-1
 207 -161 l 1,15,-1
 219 -102 l 1,0,-1
202 441 m 1,16,-1
 139 441 l 1,17,-1
 151 496 l 1,18,-1
 282 496 l 1,19,-1
 176 0 l 1,20,-1
 107 0 l 1,21,-1
 202 441 l 1,16,-1
231 612 m 128,-1,23
 215 628 215 628 215 650 c 256,24,25
 215 672 215 672 231 688.5 c 128,-1,26
 247 705 247 705 269 705 c 0,27,28
 292 705 292 705 308 689 c 128,-1,29
 324 673 324 673 324 650 c 0,30,31
 324 628 324 628 307.5 612 c 128,-1,32
 291 596 291 596 269 596 c 256,33,22
 247 596 247 596 231 612 c 128,-1,23
522 612 m 128,-1,35
 506 628 506 628 506 650 c 0,36,37
 506 673 506 673 522 689 c 128,-1,38
 538 705 538 705 560 705 c 0,39,40
 583 705 583 705 599 689 c 128,-1,41
 615 673 615 673 615 650 c 0,42,43
 615 628 615 628 598.5 612 c 128,-1,44
 582 596 582 596 560 596 c 256,45,34
 538 596 538 596 522 612 c 128,-1,35
EndSplineSet
EndChar
StartChar: Lslash
Encoding: 321 321 55
Width: 632
GlyphClass: 1
Flags: W
LayerCount: 2
Fore
SplineSet
142 254 m 1,0,-1
 19 192 l 1,1,-1
 34 262 l 1,2,-1
 157 325 l 1,3,-1
 230 668 l 1,4,-1
 301 668 l 1,5,-1
 236 366 l 1,6,-1
 455 477 l 1,7,-1
 440 406 l 1,8,-1
 222 295 l 1,9,-1
 172 62 l 1,10,-1
 542 62 l 1,11,-1
 529 0 l 1,12,-1
 88 0 l 1,13,-1
 142 254 l 1,0,-1
EndSplineSet
EndChar
StartChar: OE
Encoding: 338 338 70
Width: 632
GlyphClass: 2
Flags: W
AnchorPoint: "Anchor-1" 405 668 basechar 0
AnchorPoint: "Anchor-0" 263 0 basechar 0
LayerCount: 2
Fore
SplineSet
48 49.5 m 128,-1,1
 12 111 12 111 12 208 c 0,2,3
 12 297 12 297 41.5 408.5 c 128,-1,4
 71 520 71 520 132 600 c 128,-1,5
 193 680 193 680 281 680 c 0,6,7
 385 680 385 680 416 568 c 1,8,-1
 437 668 l 1,9,-1
 704 668 l 1,10,-1
 692 609 l 1,11,-1
 490 609 l 1,12,-1
 439 373 l 1,13,-1
 591 373 l 1,14,-1
 578 314 l 1,15,-1
 427 314 l 1,16,-1
 373 59 l 1,17,-1
 578 59 l 1,18,-1
 566 0 l 1,19,-1
 295 0 l 1,20,-1
 310 68 l 1,21,22
 247 -12 247 -12 165 -12 c 0,23,0
 84 -12 84 -12 48 49.5 c 128,-1,1
288 118 m 128,-1,25
 334 190 334 190 357 288.5 c 128,-1,26
 380 387 380 387 380 462 c 0,27,28
 380 534 380 534 357.5 578 c 128,-1,29
 335 622 335 622 281 622 c 0,30,31
 216 622 216 622 170 548 c 128,-1,32
 124 474 124 474 101.5 374.5 c 128,-1,33
 79 275 79 275 79 204 c 256,34,35
 79 133 79 133 101.5 89.5 c 128,-1,36
 124 46 124 46 177 46 c 0,37,24
 242 46 242 46 288 118 c 128,-1,25
EndSplineSet
EndChar
StartChar: Scedilla
Encoding: 350 350 80
Width: 632
GlyphClass: 2
Flags: W
AnchorPoint: "Anchor-1" 395 668 basechar 0
LayerCount: 2
Fore
SplineSet
173 -150 m 1,1,-1
 192 -122 l 1,2,3
 224 -144 224 -144 256 -144 c 0,4,5
 277 -144 277 -144 290.5 -133 c 128,-1,6
 304 -122 304 -122 304 -106 c 0,7,8
 304 -78 304 -78 264 -78 c 2,9,-1
 237 -80 l 1,10,-1
 235 -80 l 2,11,12
 228 -80 228 -80 224 -77 c 128,-1,13
 220 -74 220 -74 220 -69 c 0,14,15
 220 -62 220 -62 228 -52 c 2,16,-1
 262 -10 l 1,17,18
 187 -3 187 -3 128.5 37.5 c 128,-1,19
 70 78 70 78 55 146 c 1,20,-1
 123 169 l 1,21,22
 134 110 134 110 183.5 79 c 128,-1,23
 233 48 233 48 301 48 c 0,24,25
 351 48 351 48 391.5 66 c 128,-1,26
 432 84 432 84 455 116.5 c 128,-1,27
 478 149 478 149 478 191 c 0,28,29
 478 231 478 231 445.5 257.5 c 128,-1,30
 413 284 413 284 357 304 c 2,31,-1
 274 335 l 2,32,33
 136 384 136 384 136 490 c 0,34,35
 136 546 136 546 169.5 589 c 128,-1,36
 203 632 203 632 258 656 c 128,-1,37
 313 680 313 680 375 680 c 0,38,39
 450 680 450 680 510 648.5 c 128,-1,40
 570 617 570 617 594 557 c 1,41,-1
 525 533 l 1,42,43
 509 575 509 575 465 597.5 c 128,-1,44
 421 620 421 620 369 620 c 0,45,46
 304 620 304 620 256.5 587.5 c 128,-1,47
 209 555 209 555 209 500 c 0,48,49
 209 461 209 461 231.5 437.5 c 128,-1,50
 254 414 254 414 303 397 c 2,51,-1
 388 365 l 2,52,53
 468 336 468 336 509.5 297.5 c 128,-1,54
 551 259 551 259 551 200 c 0,55,56
 551 137 551 137 517.5 89.5 c 128,-1,57
 484 42 484 42 427 16 c 128,-1,58
 370 -10 370 -10 301 -12 c 1,59,-1
 271 -47 l 1,60,61
 282 -44 282 -44 291 -44 c 0,62,63
 319 -44 319 -44 337.5 -59.5 c 128,-1,64
 356 -75 356 -75 356 -98 c 0,65,66
 356 -134 356 -134 328.5 -156 c 128,-1,67
 301 -178 301 -178 260 -178 c 0,68,0
 213 -178 213 -178 173 -150 c 1,1,-1
EndSplineSet
Substitution2: "'locl' Localized Forms in Latin lookup 4 subtable" uni0218
AlternateSubs2: "'aalt' Access All Alternates in Latin lookup 0 subtable" uni0218
EndChar
StartChar: scedilla
Encoding: 351 351 191
Width: 632
GlyphClass: 2
Flags: W
AnchorPoint: "Anchor-1" 363 496 basechar 0
LayerCount: 2
Fore
SplineSet
172 -150 m 1,1,-1
 191 -122 l 1,2,3
 222 -144 222 -144 254 -144 c 0,4,5
 275 -144 275 -144 288.5 -133 c 128,-1,6
 302 -122 302 -122 302 -106 c 0,7,8
 302 -78 302 -78 262 -78 c 2,9,-1
 235 -80 l 1,10,-1
 233 -80 l 2,11,12
 219 -80 219 -80 219 -69 c 0,13,14
 219 -60 219 -60 226 -52 c 2,15,-1
 261 -10 l 1,16,17
 196 -2 196 -2 148 29.5 c 128,-1,18
 100 61 100 61 84 115 c 1,19,-1
 149 138 l 1,20,21
 159 91 159 91 203.5 68 c 128,-1,22
 248 45 248 45 307 45 c 0,23,24
 364 45 364 45 401 69 c 128,-1,25
 438 93 438 93 438 137 c 0,26,27
 438 168 438 168 413 185.5 c 128,-1,28
 388 203 388 203 338 219 c 2,29,-1
 263 244 l 2,30,31
 206 263 206 263 175.5 292.5 c 128,-1,32
 145 322 145 322 145 366 c 256,33,34
 145 410 145 410 172.5 442 c 128,-1,35
 200 474 200 474 244.5 490.5 c 128,-1,36
 289 507 289 507 340 507 c 0,37,38
 408 507 408 507 462.5 480.5 c 128,-1,39
 517 454 517 454 535 402 c 1,40,-1
 472 379 l 1,41,42
 461 415 461 415 421.5 432 c 128,-1,43
 382 449 382 449 333 449 c 0,44,45
 283 449 283 449 248 429 c 128,-1,46
 213 409 213 409 213 373 c 0,47,48
 213 327 213 327 292 301 c 2,49,-1
 369 275 l 2,50,51
 437 253 437 253 471.5 223 c 128,-1,52
 506 193 506 193 506 147 c 0,53,54
 506 104 506 104 483 68 c 128,-1,55
 460 32 460 32 413 10 c 128,-1,56
 366 -12 366 -12 299 -12 c 1,57,-1
 269 -47 l 1,58,59
 280 -44 280 -44 290 -44 c 0,60,61
 318 -44 318 -44 336 -59.5 c 128,-1,62
 354 -75 354 -75 354 -98 c 0,63,64
 354 -134 354 -134 326.5 -156 c 128,-1,65
 299 -178 299 -178 258 -178 c 0,66,0
 212 -178 212 -178 172 -150 c 1,1,-1
EndSplineSet
Substitution2: "'locl' Localized Forms in Latin lookup 4 subtable" uni0219
AlternateSubs2: "'aalt' Access All Alternates in Latin lookup 0 subtable" uni0219
EndChar
StartChar: uni0163
Encoding: 355 355 196
Width: 632
GlyphClass: 2
Flags: W
AnchorPoint: "Anchor-3" 394 544 basechar 0
AnchorPoint: "Anchor-1" 338 496 basechar 0
LayerCount: 2
Fore
SplineSet
170 -150 m 1,1,-1
 190 -122 l 1,2,3
 221 -144 221 -144 253 -144 c 0,4,5
 274 -144 274 -144 287.5 -133 c 128,-1,6
 301 -122 301 -122 301 -106 c 0,7,8
 301 -78 301 -78 261 -78 c 2,9,-1
 234 -80 l 1,10,-1
 232 -80 l 2,11,12
 218 -80 218 -80 218 -69 c 0,13,14
 218 -60 218 -60 225 -52 c 2,15,-1
 270 3 l 1,16,17
 233 8 233 8 216.5 24.5 c 128,-1,18
 200 41 200 41 200 74 c 0,19,20
 200 96 200 96 208 131 c 2,21,-1
 273 441 l 1,22,-1
 165 441 l 1,23,-1
 177 496 l 1,24,-1
 286 496 l 1,25,-1
 312 620 l 1,26,-1
 381 620 l 1,27,-1
 355 496 l 1,28,-1
 568 496 l 1,29,-1
 555 441 l 1,30,-1
 342 441 l 1,31,-1
 277 131 l 2,32,33
 272 106 272 106 272 95 c 0,34,35
 272 75 272 75 284 67 c 128,-1,36
 296 59 296 59 326 59 c 2,37,-1
 424 59 l 1,38,-1
 412 0 l 1,39,-1
 309 0 l 1,40,-1
 268 -47 l 1,41,42
 279 -44 279 -44 288 -44 c 0,43,44
 316 -44 316 -44 334.5 -59.5 c 128,-1,45
 353 -75 353 -75 353 -98 c 0,46,47
 353 -134 353 -134 325.5 -156 c 128,-1,48
 298 -178 298 -178 257 -178 c 0,49,0
 210 -178 210 -178 170 -150 c 1,1,-1
EndSplineSet
Substitution2: "'locl' Localized Forms in Latin lookup 4 subtable" uni021B
AlternateSubs2: "'aalt' Access All Alternates in Latin lookup 0 subtable" uni021B
EndChar
StartChar: Uring
Encoding: 366 366 95
Width: 632
GlyphClass: 2
Flags: W
AnchorPoint: "Anchor-3" 732 668 basechar 0
AnchorPoint: "Anchor-1" 423 878 basechar 0
LayerCount: 2
Fore
SplineSet
74 178 m 0,1,2
 74 219 74 219 85 272 c 2,3,-1
 169 668 l 1,4,-1
 241 668 l 1,5,-1
 154 258 l 2,6,7
 145 219 145 219 145 185 c 0,8,9
 145 48 145 48 298 48 c 0,10,11
 370 48 370 48 413.5 92 c 128,-1,12
 457 136 457 136 475 224 c 2,13,-1
 569 668 l 1,14,-1
 641 668 l 1,15,-1
 546 223 l 2,16,17
 522 104 522 104 462.5 46 c 128,-1,18
 403 -12 403 -12 301 -12 c 0,19,0
 74 -12 74 -12 74 178 c 0,1,2
329.5 704 m 128,-1,21
 299 734 299 734 299 776 c 256,22,23
 299 818 299 818 329.5 848 c 128,-1,24
 360 878 360 878 403 878 c 256,25,26
 446 878 446 878 474.5 848 c 128,-1,27
 503 818 503 818 503 776 c 256,28,29
 503 734 503 734 474.5 704 c 128,-1,30
 446 674 446 674 403 674 c 256,31,20
 360 674 360 674 329.5 704 c 128,-1,21
439.5 739 m 128,-1,33
 455 754 455 754 455 776 c 256,34,35
 455 798 455 798 439.5 813 c 128,-1,36
 424 828 424 828 401 828 c 0,37,38
 379 828 379 828 363 813 c 128,-1,39
 347 798 347 798 347 776 c 256,40,41
 347 754 347 754 363 739 c 128,-1,42
 379 724 379 724 401 724 c 0,43,32
 424 724 424 724 439.5 739 c 128,-1,33
EndSplineSet
EndChar
StartChar: uogonek
Encoding: 371 371 205
Width: 632
GlyphClass: 2
Flags: W
AnchorPoint: "Anchor-3" 610 496 basechar 0
AnchorPoint: "Anchor-1" 358 496 basechar 0
LayerCount: 2
Fore
SplineSet
129.5 27.5 m 128,-1,1
 93 67 93 67 93 131 c 0,2,3
 93 160 93 160 99 188 c 2,4,-1
 165 496 l 1,5,-1
 234 496 l 1,6,-1
 172 201 l 2,7,8
 165 170 165 170 165 142 c 0,9,10
 165 47 165 47 265 47 c 0,11,12
 325 47 325 47 375.5 95 c 128,-1,13
 426 143 426 143 443 225 c 2,14,-1
 501 496 l 1,15,-1
 570 496 l 1,16,-1
 464 0 l 1,17,18
 423 -11 423 -11 391 -35.5 c 128,-1,19
 359 -60 359 -60 359 -89 c 0,20,21
 359 -123 359 -123 411 -123 c 0,22,23
 423 -123 423 -123 439 -119 c 1,24,-1
 429 -165 l 1,25,26
 410 -169 410 -169 390 -169 c 0,27,28
 352 -169 352 -169 325.5 -151 c 128,-1,29
 299 -133 299 -133 299 -103 c 0,30,31
 299 -35 299 -35 411 14 c 1,32,-1
 414 78 l 1,33,34
 384 42 384 42 338.5 15 c 128,-1,35
 293 -12 293 -12 241 -12 c 0,36,0
 166 -12 166 -12 129.5 27.5 c 128,-1,1
EndSplineSet
EndChar
StartChar: gravecomb
Encoding: 768 768 340
Width: 0
GlyphClass: 4
Flags: W
AnchorPoint: "Anchor-5" 459 701 basemark 0
AnchorPoint: "Anchor-5" 416 496 mark 0
AnchorPoint: "Anchor-1" 416 496 mark 0
LayerCount: 2
Fore
SplineSet
336.5 644 m 128,-1,1
 331 654 331 654 331 664 c 0,2,3
 331 679 331 679 340.5 690 c 128,-1,4
 350 701 350 701 364 701 c 0,5,6
 374 701 374 701 381.5 693.5 c 128,-1,7
 389 686 389 686 398 669 c 2,8,-1
 453 570 l 1,9,-1
 404 570 l 1,10,-1
 357 619 l 2,11,0
 342 634 342 634 336.5 644 c 128,-1,1
EndSplineSet
Substitution2: "Single Substitution lookup 12 subtable" gravecomb.case
Substitution2: "'case' Case-Sensitive Forms in Latin lookup 9 subtable" gravecomb.case
AlternateSubs2: "'aalt' Access All Alternates in Latin lookup 0 subtable" gravecomb.case
EndChar
StartChar: acutecomb
Encoding: 769 769 342
Width: 0
GlyphClass: 4
Flags: W
AnchorPoint: "Anchor-5" 365 701 basemark 0
AnchorPoint: "Anchor-5" 322 496 mark 0
AnchorPoint: "Anchor-1" 322 496 mark 0
LayerCount: 2
Fore
SplineSet
459 701 m 0,1,2
 471 701 471 701 479 694 c 128,-1,3
 487 687 487 687 487 677 c 0,4,5
 487 662 487 662 477.5 651.5 c 128,-1,6
 468 641 468 641 440 619 c 2,7,-1
 373 570 l 1,8,-1
 310 570 l 1,9,-1
 407 669 l 2,10,0
 437 701 437 701 459 701 c 0,1,2
EndSplineSet
Substitution2: "Single Substitution lookup 12 subtable" acutecomb.case
Substitution2: "'case' Case-Sensitive Forms in Latin lookup 9 subtable" acutecomb.case
AlternateSubs2: "'aalt' Access All Alternates in Latin lookup 0 subtable" acutecomb.case
EndChar
StartChar: uni0302
Encoding: 770 770 347
Width: 0
GlyphClass: 4
Flags: W
AnchorPoint: "Anchor-5" 410 686 basemark 0
AnchorPoint: "Anchor-5" 369 496 mark 0
AnchorPoint: "Anchor-1" 369 496 mark 0
LayerCount: 2
Fore
SplineSet
410 686 m 256,1,2
 434 686 434 686 450 665 c 2,3,-1
 521 576 l 1,4,-1
 458 576 l 1,5,-1
 401 636 l 1,6,-1
 320 576 l 1,7,-1
 251 576 l 1,8,-1
 360 665 l 2,9,0
 386 686 386 686 410 686 c 256,1,2
EndSplineSet
Substitution2: "Single Substitution lookup 12 subtable" uni0302.case
Substitution2: "'case' Case-Sensitive Forms in Latin lookup 9 subtable" uni0302.case
AlternateSubs2: "'aalt' Access All Alternates in Latin lookup 0 subtable" uni0302.case
EndChar
StartChar: uni0307
Encoding: 775 775 337
Width: 0
GlyphClass: 4
Flags: W
AnchorPoint: "Anchor-5" 410 692 basemark 0
AnchorPoint: "Anchor-5" 369 496 mark 0
AnchorPoint: "Anchor-1" 369 496 mark 0
LayerCount: 2
Fore
SplineSet
365.5 607.5 m 128,-1,1
 351 622 351 622 351 643 c 0,2,3
 351 663 351 663 365.5 677.5 c 128,-1,4
 380 692 380 692 400 692 c 256,5,6
 420 692 420 692 435 677.5 c 128,-1,7
 450 663 450 663 450 643 c 0,8,9
 450 622 450 622 435 607.5 c 128,-1,10
 420 593 420 593 400 593 c 256,11,0
 380 593 380 593 365.5 607.5 c 128,-1,1
EndSplineSet
Substitution2: "Single Substitution lookup 12 subtable" uni0307.case
Substitution2: "'case' Case-Sensitive Forms in Latin lookup 9 subtable" uni0307.case
AlternateSubs2: "'aalt' Access All Alternates in Latin lookup 0 subtable" uni0307.case
EndChar
StartChar: uni0308
Encoding: 776 776 335
Width: 0
GlyphClass: 4
Flags: W
AnchorPoint: "Anchor-5" 410 692 basemark 0
AnchorPoint: "Anchor-5" 369 496 mark 0
AnchorPoint: "Anchor-1" 369 496 mark 0
LayerCount: 2
Fore
SplineSet
449.5 609.5 m 128,-1,1
 435 624 435 624 435 644 c 256,2,3
 435 664 435 664 449.5 678 c 128,-1,4
 464 692 464 692 484 692 c 256,5,6
 504 692 504 692 518 678 c 128,-1,7
 532 664 532 664 532 644 c 256,8,9
 532 624 532 624 518 609.5 c 128,-1,10
 504 595 504 595 484 595 c 256,11,0
 464 595 464 595 449.5 609.5 c 128,-1,1
283 609.5 m 128,-1,13
 269 624 269 624 269 644 c 256,14,15
 269 664 269 664 283.5 678 c 128,-1,16
 298 692 298 692 317 692 c 0,17,18
 337 692 337 692 351.5 678 c 128,-1,19
 366 664 366 664 366 644 c 256,20,21
 366 624 366 624 351.5 609.5 c 128,-1,22
 337 595 337 595 317 595 c 256,23,12
 297 595 297 595 283 609.5 c 128,-1,13
EndSplineSet
Substitution2: "Single Substitution lookup 12 subtable" uni0308.case
Substitution2: "'case' Case-Sensitive Forms in Latin lookup 9 subtable" uni0308.case
AlternateSubs2: "'aalt' Access All Alternates in Latin lookup 0 subtable" uni0308.case
EndChar
StartChar: uni030A
Encoding: 778 778 353
Width: 0
GlyphClass: 4
Flags: W
AnchorPoint: "Anchor-5" 426 768 basemark 0
AnchorPoint: "Anchor-5" 368 496 mark 0
AnchorPoint: "Anchor-1" 368 496 mark 0
LayerCount: 2
Fore
SplineSet
334.5 597.5 m 128,-1,1
 305 627 305 627 305 668 c 256,2,3
 305 709 305 709 334.5 738.5 c 128,-1,4
 364 768 364 768 405 768 c 0,5,6
 447 768 447 768 476 738.5 c 128,-1,7
 505 709 505 709 505 668 c 256,8,9
 505 627 505 627 476 597.5 c 128,-1,10
 447 568 447 568 405 568 c 0,11,0
 364 568 364 568 334.5 597.5 c 128,-1,1
443.5 630 m 128,-1,13
 459 646 459 646 459 668 c 0,14,15
 459 691 459 691 443.5 706.5 c 128,-1,16
 428 722 428 722 405 722 c 0,17,18
 383 722 383 722 367 706 c 128,-1,19
 351 690 351 690 351 668 c 256,20,21
 351 646 351 646 367 630 c 128,-1,22
 383 614 383 614 405 614 c 0,23,12
 428 614 428 614 443.5 630 c 128,-1,13
EndSplineSet
Substitution2: "Single Substitution lookup 12 subtable" uni030A.case
Substitution2: "'case' Case-Sensitive Forms in Latin lookup 9 subtable" uni030A.case
AlternateSubs2: "'aalt' Access All Alternates in Latin lookup 0 subtable" uni030A.case
EndChar
StartChar: uni0327
Encoding: 807 807 360
Width: 0
GlyphClass: 4
Flags: W
AnchorPoint: "Anchor-4" 226 -179 basemark 0
AnchorPoint: "Anchor-4" 264 0 mark 0
AnchorPoint: "Anchor-0" 264 0 mark 0
LayerCount: 2
Fore
SplineSet
144 -150 m 1,1,-1
 163 -122 l 1,2,3
 195 -144 195 -144 227 -144 c 0,4,5
 248 -144 248 -144 261.5 -133 c 128,-1,6
 275 -122 275 -122 275 -106 c 0,7,8
 275 -78 275 -78 235 -78 c 2,9,-1
 208 -80 l 1,10,-1
 206 -80 l 2,11,12
 191 -80 191 -80 191 -68 c 0,13,14
 191 -60 191 -60 198 -52 c 2,15,-1
 259 21 l 1,16,-1
 287 6 l 1,17,-1
 242 -47 l 1,18,19
 251 -44 251 -44 262 -44 c 0,20,21
 290 -44 290 -44 308 -59.5 c 128,-1,22
 326 -75 326 -75 326 -98 c 0,23,24
 326 -134 326 -134 298.5 -156 c 128,-1,25
 271 -178 271 -178 230 -178 c 0,26,0
 184 -178 184 -178 144 -150 c 1,1,-1
EndSplineSet
EndChar
StartChar: uni03A9
Encoding: 937 937 226
Width: 632
GlyphClass: 1
Flags: W
LayerCount: 2
Fore
SplineSet
-11 58 m 1,0,-1
 153 58 l 1,1,-1
 167 126 l 1,2,3
 116 156 116 156 88 213.5 c 128,-1,4
 60 271 60 271 60 341 c 0,5,6
 60 431 60 431 103.5 509 c 128,-1,7
 147 587 147 587 221 633.5 c 128,-1,8
 295 680 295 680 380 680 c 0,9,10
 453 680 453 680 509.5 646 c 128,-1,11
 566 612 566 612 597.5 553.5 c 128,-1,12
 629 495 629 495 629 425 c 0,13,14
 629 332 629 332 577 249 c 128,-1,15
 525 166 525 166 409 117 c 1,16,-1
 397 58 l 1,17,-1
 562 58 l 1,18,-1
 549 0 l 1,19,-1
 324 0 l 1,20,-1
 358 159 l 1,21,22
 456 186 456 186 512 253.5 c 128,-1,23
 568 321 568 321 568 415 c 0,24,25
 568 474 568 474 543.5 521 c 128,-1,26
 519 568 519 568 475 595 c 128,-1,27
 431 622 431 622 375 622 c 0,28,29
 305 622 305 622 247 583.5 c 128,-1,30
 189 545 189 545 155.5 482 c 128,-1,31
 122 419 122 419 122 348 c 0,32,33
 122 280 122 280 152 228.5 c 128,-1,34
 182 177 182 177 235 159 c 1,35,-1
 202 0 l 1,36,-1
 -23 0 l 1,37,-1
 -11 58 l 1,0,-1
EndSplineSet
EndChar
StartChar: uni1E9E
Encoding: 7838 7838 82
Width: 632
GlyphClass: 1
Flags: W
LayerCount: 2
Fore
SplineSet
281.5 17 m 128,-1,1
 239 46 239 46 228 104 c 1,2,-1
 289 125 l 1,3,4
 295 85 295 85 321.5 67 c 128,-1,5
 348 49 348 49 388 49 c 0,6,7
 427 49 427 49 455.5 70.5 c 128,-1,8
 484 92 484 92 499.5 125.5 c 128,-1,9
 515 159 515 159 515 195 c 0,10,11
 515 240 515 240 489 268 c 128,-1,12
 463 296 463 296 416 296 c 0,13,14
 402 296 402 296 379 291 c 1,15,-1
 360 347 l 1,16,-1
 585 601 l 1,17,18
 499 621 499 621 418 621 c 0,19,20
 353 621 353 621 309.5 608.5 c 128,-1,21
 266 596 266 596 236.5 561.5 c 128,-1,22
 207 527 207 527 193 462 c 2,23,-1
 95 0 l 1,24,-1
 23 0 l 1,25,-1
 124 474 l 2,26,27
 148 592 148 592 221.5 636 c 128,-1,28
 295 680 295 680 417 680 c 0,29,30
 523 680 523 680 662 647 c 1,31,-1
 648 584 l 1,32,-1
 442 350 l 1,33,34
 504 348 504 348 543.5 304 c 128,-1,35
 583 260 583 260 583 198 c 0,36,37
 583 143 583 143 557.5 94.5 c 128,-1,38
 532 46 532 46 486 17 c 128,-1,39
 440 -12 440 -12 381 -12 c 0,40,0
 324 -12 324 -12 281.5 17 c 128,-1,1
EndSplineSet
EndChar
StartChar: quoteleft
Encoding: 8216 8216 278
Width: 632
GlyphClass: 1
Flags: W
LayerCount: 2
Fore
SplineSet
323 445.5 m 128,-1,1
 306 463 306 463 306 485 c 0,2,3
 306 497 306 497 309.5 506 c 128,-1,4
 313 515 313 515 321 527 c 2,5,-1
 414 678 l 1,6,-1
 467 678 l 1,7,-1
 385 547 l 1,8,9
 405 539 405 539 416 523.5 c 128,-1,10
 427 508 427 508 427 489 c 0,11,12
 427 464 427 464 409.5 446 c 128,-1,13
 392 428 392 428 366 428 c 256,14,0
 340 428 340 428 323 445.5 c 128,-1,1
EndSplineSet
EndChar
StartChar: quoteright
Encoding: 8217 8217 279
Width: 632
GlyphClass: 1
Flags: W
LayerCount: 2
Fore
SplineSet
347 584 m 128,-1,1
 336 600 336 600 336 619 c 0,2,3
 336 644 336 644 353.5 662 c 128,-1,4
 371 680 371 680 396 680 c 0,5,6
 422 680 422 680 439 662.5 c 128,-1,7
 456 645 456 645 456 623 c 0,8,9
 456 611 456 611 452.5 602 c 128,-1,10
 449 593 449 593 441 581 c 2,11,-1
 348 430 l 1,12,-1
 295 430 l 1,13,-1
 377 560 l 1,14,0
 358 568 358 568 347 584 c 128,-1,1
EndSplineSet
EndChar
StartChar: quotedblleft
Encoding: 8220 8220 276
Width: 632
GlyphClass: 1
Flags: W
LayerCount: 2
Fore
SplineSet
414 437 m 128,-1,1
 398 454 398 454 398 476 c 0,2,3
 398 496 398 496 412 519 c 2,4,-1
 505 668 l 1,5,-1
 557 668 l 1,6,-1
 476 538 l 1,7,8
 495 531 495 531 506 515.5 c 128,-1,9
 517 500 517 500 517 480 c 0,10,11
 517 455 517 455 499.5 437.5 c 128,-1,12
 482 420 482 420 457 420 c 0,13,0
 430 420 430 420 414 437 c 128,-1,1
227.5 437 m 128,-1,15
 211 454 211 454 211 476 c 0,16,17
 211 497 211 497 226 519 c 2,18,-1
 318 668 l 1,19,-1
 371 668 l 1,20,-1
 289 538 l 1,21,22
 308 531 308 531 319 515.5 c 128,-1,23
 330 500 330 500 330 480 c 0,24,25
 330 455 330 455 312.5 437.5 c 128,-1,26
 295 420 295 420 270 420 c 0,27,14
 244 420 244 420 227.5 437 c 128,-1,15
EndSplineSet
EndChar
StartChar: quotedblbase
Encoding: 8222 8222 275
Width: 632
GlyphClass: 1
Flags: W
LayerCount: 2
Fore
SplineSet
133 11 m 128,-1,1
 122 26 122 26 122 46 c 0,2,3
 122 71 122 71 139 88.5 c 128,-1,4
 156 106 156 106 181 106 c 0,5,6
 208 106 208 106 224 89 c 128,-1,7
 240 72 240 72 240 50 c 0,8,9
 240 31 240 31 226 8 c 2,10,-1
 134 -142 l 1,11,-1
 81 -142 l 1,12,-1
 163 -12 l 1,13,0
 144 -4 144 -4 133 11 c 128,-1,1
319 11 m 128,-1,15
 308 26 308 26 308 46 c 0,16,17
 308 71 308 71 325.5 88.5 c 128,-1,18
 343 106 343 106 368 106 c 0,19,20
 395 106 395 106 411 89 c 128,-1,21
 427 72 427 72 427 50 c 0,22,23
 427 31 427 31 413 8 c 2,24,-1
 320 -142 l 1,25,-1
 268 -142 l 1,26,-1
 349 -12 l 1,27,14
 330 -4 330 -4 319 11 c 128,-1,15
EndSplineSet
EndChar
StartChar: perthousand
Encoding: 8240 8240 333
Width: 632
GlyphClass: 1
Flags: W
LayerCount: 2
Fore
SplineSet
168.5 435.5 m 128,-1,1
 138 453 138 453 120.5 483.5 c 128,-1,2
 103 514 103 514 103 550 c 256,3,4
 103 586 103 586 120.5 616.5 c 128,-1,5
 138 647 138 647 168.5 664.5 c 128,-1,6
 199 682 199 682 235 682 c 256,7,8
 271 682 271 682 301.5 664.5 c 128,-1,9
 332 647 332 647 350 616.5 c 128,-1,10
 368 586 368 586 368 550 c 256,11,12
 368 514 368 514 350 483.5 c 128,-1,13
 332 453 332 453 301.5 435.5 c 128,-1,14
 271 418 271 418 235 418 c 256,15,0
 199 418 199 418 168.5 435.5 c 128,-1,1
294 491.5 m 128,-1,17
 318 515 318 515 318 550 c 256,18,19
 318 585 318 585 294 609 c 128,-1,20
 270 633 270 633 235 633 c 0,21,22
 201 633 201 633 176.5 609 c 128,-1,23
 152 585 152 585 152 550 c 0,24,25
 152 516 152 516 176 492 c 128,-1,26
 200 468 200 468 235 468 c 256,27,16
 270 468 270 468 294 491.5 c 128,-1,17
76.5 3.5 m 128,-1,29
 46 21 46 21 28.5 51.5 c 128,-1,30
 11 82 11 82 11 118 c 256,31,32
 11 154 11 154 28.5 184.5 c 128,-1,33
 46 215 46 215 76.5 232.5 c 128,-1,34
 107 250 107 250 143 250 c 256,35,36
 179 250 179 250 209.5 232.5 c 128,-1,37
 240 215 240 215 258 184.5 c 128,-1,38
 276 154 276 154 276 118 c 256,39,40
 276 82 276 82 258 51.5 c 128,-1,41
 240 21 240 21 209.5 3.5 c 128,-1,42
 179 -14 179 -14 143 -14 c 256,43,28
 107 -14 107 -14 76.5 3.5 c 128,-1,29
202 59.5 m 128,-1,45
 226 83 226 83 226 118 c 256,46,47
 226 153 226 153 202 177 c 128,-1,48
 178 201 178 201 143 201 c 0,49,50
 109 201 109 201 84.5 177 c 128,-1,51
 60 153 60 153 60 118 c 0,52,53
 60 84 60 84 84 60 c 128,-1,54
 108 36 108 36 143 36 c 256,55,44
 178 36 178 36 202 59.5 c 128,-1,45
370.5 3.5 m 128,-1,57
 340 21 340 21 322.5 51.5 c 128,-1,58
 305 82 305 82 305 118 c 256,59,60
 305 154 305 154 322.5 184.5 c 128,-1,61
 340 215 340 215 370.5 232.5 c 128,-1,62
 401 250 401 250 437 250 c 256,63,64
 473 250 473 250 503.5 232.5 c 128,-1,65
 534 215 534 215 552 184.5 c 128,-1,66
 570 154 570 154 570 118 c 256,67,68
 570 82 570 82 552 51.5 c 128,-1,69
 534 21 534 21 503.5 3.5 c 128,-1,70
 473 -14 473 -14 437 -14 c 256,71,56
 401 -14 401 -14 370.5 3.5 c 128,-1,57
496 59.5 m 128,-1,73
 520 83 520 83 520 118 c 256,74,75
 520 153 520 153 496 177 c 128,-1,76
 472 201 472 201 437 201 c 0,77,78
 403 201 403 201 378.5 177 c 128,-1,79
 354 153 354 153 354 118 c 0,80,81
 354 84 354 84 378 60 c 128,-1,82
 402 36 402 36 437 36 c 256,83,72
 472 36 472 36 496 59.5 c 128,-1,73
55 317 m 1,84,-1
 652 515 l 1,85,-1
 640 457 l 1,86,-1
 42 260 l 1,87,-1
 55 317 l 1,84,-1
EndSplineSet
EndChar
StartChar: uni20B9
Encoding: 8377 8377 306
Width: 632
GlyphClass: 1
Flags: W
LayerCount: 2
Fore
SplineSet
111 291 m 1,0,-1
 121 339 l 1,1,-1
 272 339 l 2,2,3
 340 339 340 339 382.5 367.5 c 128,-1,4
 425 396 425 396 435 450 c 1,5,-1
 145 450 l 1,6,-1
 155 495 l 1,7,-1
 437 495 l 1,8,9
 433 548 433 548 382.5 578 c 128,-1,10
 332 608 332 608 232 608 c 2,11,-1
 179 608 l 1,12,-1
 191 668 l 1,13,-1
 638 668 l 1,14,-1
 628 624 l 1,15,-1
 426 624 l 1,16,17
 462 603 462 603 485.5 571 c 128,-1,18
 509 539 509 539 511 495 c 1,19,-1
 601 495 l 1,20,-1
 591 450 l 1,21,-1
 508 450 l 1,22,23
 498 369 498 369 433.5 325.5 c 128,-1,24
 369 282 369 282 270 281 c 2,25,-1
 202 281 l 1,26,-1
 435 0 l 1,27,-1
 349 0 l 1,28,-1
 111 291 l 1,0,-1
EndSplineSet
EndChar
StartChar: uni2113
Encoding: 8467 8467 299
Width: 632
GlyphClass: 1
Flags: W
LayerCount: 2
Fore
SplineSet
196 96 m 0,1,2
 196 121 196 121 202 149 c 2,3,-1
 211 197 l 1,4,-1
 134 146 l 1,5,-1
 148 213 l 1,6,-1
 226 265 l 1,7,-1
 281 527 l 2,8,9
 296 599 296 599 331.5 639.5 c 128,-1,10
 367 680 367 680 423 680 c 0,11,12
 475 680 475 680 501.5 651 c 128,-1,13
 528 622 528 622 528 571 c 0,14,15
 528 474 528 474 463 396 c 128,-1,16
 398 318 398 318 287 244 c 1,17,-1
 269 152 l 2,18,19
 265 128 265 128 265 114 c 0,20,21
 265 46 265 46 325 46 c 0,22,23
 367 46 367 46 414 78 c 1,24,-1
 434 28 l 1,25,26
 409 8 409 8 376 -2 c 128,-1,27
 343 -12 343 -12 317 -12 c 0,28,0
 196 -12 196 -12 196 96 c 0,1,2
423.5 433.5 m 128,-1,30
 469 500 469 500 469 569 c 0,31,32
 469 597 469 597 457 611.5 c 128,-1,33
 445 626 445 626 422 626 c 0,34,35
 367 626 367 626 347 528 c 2,36,-1
 302 316 l 1,37,29
 378 367 378 367 423.5 433.5 c 128,-1,30
EndSplineSet
EndChar
StartChar: estimated
Encoding: 8494 8494 301
Width: 632
GlyphClass: 1
Flags: W
LayerCount: 2
Fore
SplineSet
201.5 18 m 128,-1,1
 142 48 142 48 103.5 109 c 128,-1,2
 65 170 65 170 65 258 c 0,3,4
 65 315 65 315 97.5 372 c 128,-1,5
 130 429 130 429 188.5 465.5 c 128,-1,6
 247 502 247 502 322 502 c 0,7,8
 392 502 392 502 451 467.5 c 128,-1,9
 510 433 510 433 545 374.5 c 128,-1,10
 580 316 580 316 580 247 c 1,11,-1
 162 247 l 1,12,-1
 162 70 l 1,13,14
 231 9 231 9 322 9 c 0,15,16
 375 9 375 9 420.5 30 c 128,-1,17
 466 51 466 51 499 88 c 1,18,-1
 522 83 l 1,19,20
 486 39 486 39 434 13.5 c 128,-1,21
 382 -12 382 -12 322 -12 c 0,22,0
 261 -12 261 -12 201.5 18 c 128,-1,1
483 268 m 1,23,-1
 483 419 l 1,24,25
 451 449 451 449 409.5 465.5 c 128,-1,26
 368 482 368 482 322 482 c 0,27,28
 231 482 231 482 162 419 c 1,29,-1
 162 268 l 1,30,-1
 483 268 l 1,23,-1
EndSplineSet
EndChar
StartChar: integral
Encoding: 8747 8747 327
Width: 632
GlyphClass: 1
Flags: W
LayerCount: 2
Fore
SplineSet
95 -158.5 m 128,-1,1
 71 -145 71 -145 71 -117 c 0,2,3
 71 -96 71 -96 86 -81.5 c 128,-1,4
 101 -67 101 -67 123 -67 c 0,5,6
 143 -67 143 -67 156 -79 c 128,-1,7
 169 -91 169 -91 169 -111 c 0,8,9
 169 -125 169 -125 164 -135 c 1,10,11
 180 -133 180 -133 194.5 -110 c 128,-1,12
 209 -87 209 -87 219 -42 c 2,13,-1
 340 504 l 2,14,15
 362 605 362 605 399 643.5 c 128,-1,16
 436 682 436 682 488 682 c 0,17,18
 519 682 519 682 543 668.5 c 128,-1,19
 567 655 567 655 567 627 c 0,20,21
 567 607 567 607 552 592.5 c 128,-1,22
 537 578 537 578 515 578 c 0,23,24
 495 578 495 578 482 590 c 128,-1,25
 469 602 469 602 469 621 c 0,26,27
 469 635 469 635 474 644 c 1,28,29
 438 639 438 639 419 552 c 2,30,-1
 298 6 l 2,31,32
 276 -95 276 -95 239 -133.5 c 128,-1,33
 202 -172 202 -172 151 -172 c 0,34,0
 119 -172 119 -172 95 -158.5 c 128,-1,1
EndSplineSet
EndChar
StartChar: approxequal
Encoding: 8776 8776 322
Width: 632
GlyphClass: 1
Flags: W
LayerCount: 2
Fore
SplineSet
101 194.5 m 128,-1,1
 137 226 137 226 191 226 c 0,2,3
 220 226 220 226 246.5 217 c 128,-1,4
 273 208 273 208 308 192 c 0,5,6
 342 177 342 177 363 169.5 c 128,-1,7
 384 162 384 162 407 162 c 0,8,9
 441 162 441 162 462 179.5 c 128,-1,10
 483 197 483 197 494 232 c 1,11,-1
 548 218 l 1,12,13
 531 163 531 163 495 132 c 128,-1,14
 459 101 459 101 405 101 c 0,15,16
 376 101 376 101 349.5 109.5 c 128,-1,17
 323 118 323 118 288 135 c 0,18,19
 254 150 254 150 232.5 157.5 c 128,-1,20
 211 165 211 165 188 165 c 0,21,22
 123 165 123 165 102 95 c 1,23,-1
 48 109 l 1,24,0
 65 163 65 163 101 194.5 c 128,-1,1
141 384 m 128,-1,26
 177 415 177 415 231 415 c 0,27,28
 260 415 260 415 286.5 406.5 c 128,-1,29
 313 398 313 398 348 381 c 0,30,31
 382 366 382 366 403.5 358.5 c 128,-1,32
 425 351 425 351 448 351 c 0,33,34
 482 351 482 351 502.5 368.5 c 128,-1,35
 523 386 523 386 535 421 c 1,36,-1
 589 407 l 1,37,38
 572 353 572 353 535.5 321.5 c 128,-1,39
 499 290 499 290 446 290 c 0,40,41
 417 290 417 290 390.5 298.5 c 128,-1,42
 364 307 364 307 329 324 c 0,43,44
 295 339 295 339 273.5 346.5 c 128,-1,45
 252 354 252 354 229 354 c 0,46,47
 195 354 195 354 174.5 336.5 c 128,-1,48
 154 319 154 319 143 284 c 1,49,-1
 88 298 l 1,50,25
 105 353 105 353 141 384 c 128,-1,26
EndSplineSet
EndChar
StartChar: notequal
Encoding: 8800 8800 316
Width: 632
GlyphClass: 1
Flags: W
LayerCount: 2
Fore
SplineSet
168 129 m 1,0,-1
 42 129 l 1,1,-1
 55 191 l 1,2,-1
 224 191 l 1,3,-1
 332 310 l 1,4,-1
 80 310 l 1,5,-1
 93 372 l 1,6,-1
 388 372 l 1,7,-1
 500 496 l 1,8,-1
 580 496 l 1,9,-1
 467 372 l 1,10,-1
 592 372 l 1,11,-1
 578 310 l 1,12,-1
 412 310 l 1,13,-1
 304 191 l 1,14,-1
 554 191 l 1,15,-1
 540 129 l 1,16,-1
 248 129 l 1,17,-1
 132 0 l 1,18,-1
 51 0 l 1,19,-1
 168 129 l 1,0,-1
EndSplineSet
EndChar
StartChar: lessequal
Encoding: 8804 8804 320
Width: 632
GlyphClass: 1
Flags: W
LayerCount: 2
Fore
SplineSet
88 265 m 1,0,-1
 102 327 l 1,1,-1
 596 487 l 1,2,-1
 580 412 l 1,3,-1
 186 292 l 1,4,-1
 530 173 l 1,5,-1
 516 106 l 1,6,-1
 88 265 l 1,0,-1
46 64 m 1,7,-1
 507 64 l 1,8,-1
 494 0 l 1,9,-1
 32 0 l 1,10,-1
 46 64 l 1,7,-1
EndSplineSet
EndChar
StartChar: acutecomb.case
Encoding: 65544 -1 343
Width: 0
GlyphClass: 4
Flags: W
AnchorPoint: "Anchor-5" 397 858 basemark 0
AnchorPoint: "Anchor-5" 356 668 mark 0
AnchorPoint: "Anchor-1" 356 668 mark 0
LayerCount: 2
Fore
SplineSet
497 845 m 0,1,2
 509 845 509 845 516.5 839 c 128,-1,3
 524 833 524 833 524 822 c 0,4,5
 524 808 524 808 513 798.5 c 128,-1,6
 502 789 502 789 473 773 c 2,7,-1
 406 738 l 1,8,-1
 339 738 l 1,9,-1
 444 820 l 2,10,0
 476 845 476 845 497 845 c 0,1,2
EndSplineSet
EndChar
StartChar: uni0307.case
Encoding: 65541 -1 338
Width: 0
GlyphClass: 4
Flags: W
AnchorPoint: "Anchor-5" 440 834 basemark 0
AnchorPoint: "Anchor-5" 406 668 mark 0
AnchorPoint: "Anchor-1" 406 668 mark 0
LayerCount: 2
Fore
SplineSet
395.5 748.5 m 128,-1,1
 381 763 381 763 381 784 c 0,2,3
 381 804 381 804 395.5 819 c 128,-1,4
 410 834 410 834 430 834 c 256,5,6
 450 834 450 834 465 819 c 128,-1,7
 480 804 480 804 480 784 c 0,8,9
 480 763 480 763 465 748.5 c 128,-1,10
 450 734 450 734 430 734 c 256,11,0
 410 734 410 734 395.5 748.5 c 128,-1,1
EndSplineSet
EndChar
StartChar: uni030C.alt
Encoding: 65546 -1 346
Width: 0
GlyphClass: 4
Flags: W
AnchorPoint: "Anchor-3" 307 496 mark 0
LayerCount: 2
Fore
SplineSet
403.5 706 m 128,-1,1
 416 718 416 718 434 718 c 0,2,3
 447 718 447 718 455 711.5 c 128,-1,4
 463 705 463 705 463 695 c 0,5,6
 463 687 463 687 457 674 c 128,-1,7
 451 661 451 661 441 645 c 2,8,-1
 379 538 l 1,9,-1
 333 538 l 1,10,-1
 381 668 l 2,11,0
 391 694 391 694 403.5 706 c 128,-1,1
EndSplineSet
EndChar
StartChar: uni0328.alt
Encoding: 65553 -1 362
Width: 0
GlyphClass: 4
Flags: W
AnchorPoint: "Anchor-2" 338 10 mark 0
LayerCount: 2
Fore
SplineSet
198.5 -151.5 m 128,-1,1
 172 -134 172 -134 172 -101 c 0,2,3
 172 -63 172 -63 206.5 -25.5 c 128,-1,4
 241 12 241 12 283 28 c 1,5,-1
 324 25 l 1,6,7
 288 6 288 6 260.5 -23.5 c 128,-1,8
 233 -53 233 -53 233 -83 c 0,9,10
 233 -103 233 -103 247 -113 c 128,-1,11
 261 -123 261 -123 285 -123 c 0,12,13
 294 -123 294 -123 312 -119 c 1,14,-1
 302 -164 l 1,15,16
 285 -169 285 -169 268 -169 c 0,17,0
 225 -169 225 -169 198.5 -151.5 c 128,-1,1
EndSplineSet
EndChar
StartChar: zero.zero
Encoding: 65539 -1 239
Width: 632
GlyphClass: 1
Flags: W
LayerCount: 2
Fore
SplineSet
123 55.5 m 128,-1,1
 68 124 68 124 68 238 c 0,2,3
 68 336 68 336 101.5 439 c 128,-1,4
 135 542 135 542 206 612.5 c 128,-1,5
 277 683 277 683 382 683 c 0,6,7
 493 683 493 683 547.5 614.5 c 128,-1,8
 602 546 602 546 602 432 c 0,9,10
 602 335 602 335 568.5 231.5 c 128,-1,11
 535 128 535 128 464 57.5 c 128,-1,12
 393 -13 393 -13 288 -13 c 0,13,0
 178 -13 178 -13 123 55.5 c 128,-1,1
429 109.5 m 128,-1,15
 484 174 484 174 509 264.5 c 128,-1,16
 534 355 534 355 534 434 c 0,17,18
 534 521 534 521 497 573 c 128,-1,19
 460 625 460 625 380 625 c 0,20,21
 297 625 297 625 242 561 c 128,-1,22
 187 497 187 497 161.5 406.5 c 128,-1,23
 136 316 136 316 136 236 c 0,24,25
 136 149 136 149 173 97 c 128,-1,26
 210 45 210 45 290 45 c 0,27,14
 374 45 374 45 429 109.5 c 128,-1,15
295.5 294.5 m 128,-1,29
 279 311 279 311 279 335 c 0,30,31
 279 358 279 358 295.5 374.5 c 128,-1,32
 312 391 312 391 336 391 c 0,33,34
 359 391 359 391 375.5 374.5 c 128,-1,35
 392 358 392 358 392 335 c 0,36,37
 392 311 392 311 375.5 294.5 c 128,-1,38
 359 278 359 278 336 278 c 0,39,28
 312 278 312 278 295.5 294.5 c 128,-1,29
EndSplineSet
EndChar
